<?xml version="1.0" encoding="utf-8"?>
<!-- Generator: Adobe Illustrator 19.0.0, SVG Export Plug-In . SVG Version: 6.00 Build 0)  -->
<svg version="1.1" id="Layer_1" xmlns="http://www.w3.org/2000/svg" xmlns:xlink="http://www.w3.org/1999/xlink" x="0px" y="0px"
	 viewBox="0 0 300 50" style="enable-background:new 0 0 300 50;" xml:space="preserve">
<style type="text/css">
	.st0{fill:#FFA400;}
</style>
<g id="XMLID_68_">
	<g id="XMLID_114_">
		<path id="XMLID_111_" class="st0" d="M225,43.2c-10.1,0-18.2-8.2-18.2-18.2S214.9,6.8,225,6.8c10.1,0,18.2,8.2,18.2,18.2
			S235.1,43.2,225,43.2z M225,10c-8.3,0-15,6.7-15,15c0,8.3,6.7,15,15,15c8.3,0,15-6.7,15-15C240,16.7,233.3,10,225,10z"/>
	</g>
	<g id="XMLID_69_">
		<path id="XMLID_76_" class="st0" d="M215.8,22.3c0.1,0.4,0.3,0.8,0.5,1.2l-0.6,0.8c-0.2,0.3-0.2,0.6,0,0.9l1.1,1.1
			c0.2,0.2,0.6,0.3,0.9,0l0.8-0.6c0.4,0.2,0.8,0.4,1.3,0.5l0.1,1c0,0.3,0.3,0.6,0.6,0.6h1.5c0.3,0,0.6-0.2,0.6-0.6l0.1-1
			c0.5-0.1,0.9-0.3,1.4-0.6l0.8,0.6c0.3,0.2,0.6,0.2,0.9,0l1.1-1.1c0.2-0.2,0.3-0.6,0-0.9l-0.6-0.8c0.2-0.4,0.4-0.9,0.6-1.4l0.9-0.1
			c0.3,0,0.6-0.3,0.6-0.6V20c0-0.3-0.2-0.6-0.6-0.6l-0.9-0.1c-0.1-0.5-0.3-0.9-0.5-1.3l0.6-0.7c0.2-0.3,0.2-0.6,0-0.9l-1.1-1.1
			c-0.2-0.2-0.6-0.3-0.9,0l-0.7,0.5c-0.4-0.3-0.9-0.5-1.4-0.6l-0.1-0.9c0-0.3-0.3-0.6-0.6-0.6h-1.5c-0.3,0-0.6,0.2-0.6,0.6l-0.1,0.9
			c-0.5,0.1-1,0.3-1.4,0.6l-0.7-0.6c-0.3-0.2-0.6-0.2-0.9,0l-1.1,1.1c-0.2,0.2-0.3,0.6,0,0.9l0.6,0.7c-0.2,0.4-0.4,0.9-0.5,1.3
			l-0.9,0.1c-0.3,0-0.6,0.3-0.6,0.6v1.5c0,0.3,0.2,0.6,0.6,0.6L215.8,22.3z M221.3,18.2c1.4,0,2.5,1.1,2.5,2.5s-1.1,2.5-2.5,2.5
			c-1.4,0-2.5-1.1-2.5-2.5S219.9,18.2,221.3,18.2z"/>
		<path id="XMLID_73_" class="st0" d="M236.4,22.7l-0.8-0.7c-0.2-0.2-0.6-0.2-0.9,0l-0.4,0.4c-0.4-0.2-0.8-0.3-1.2-0.4l-0.1-0.6
			c-0.1-0.3-0.4-0.5-0.7-0.5l-1.1,0.1c-0.3,0-0.6,0.3-0.6,0.6l0,0.6c-0.4,0.1-0.8,0.3-1.1,0.6l-0.5-0.4c-0.3-0.2-0.6-0.1-0.8,0.1
			l-0.7,0.8c-0.2,0.2-0.2,0.6,0,0.9l0.5,0.5c-0.2,0.4-0.3,0.7-0.3,1.1l-0.7,0.1c-0.3,0.1-0.5,0.4-0.5,0.7l0.1,1.1
			c0,0.3,0.3,0.6,0.6,0.6l0.7,0c0.1,0.3,0.3,0.7,0.5,1L228,30c-0.2,0.3-0.1,0.6,0.1,0.8l0.8,0.7c0.2,0.2,0.6,0.2,0.9,0l0.5-0.5
			c0.3,0.2,0.7,0.3,1.1,0.4l0.1,0.7c0.1,0.3,0.4,0.5,0.7,0.5l1.1-0.1c0.3,0,0.6-0.3,0.6-0.6l0-0.7c0.4-0.1,0.7-0.3,1.1-0.5l0.6,0.4
			c0.3,0.2,0.6,0.1,0.8-0.1l0.7-0.8c0.2-0.2,0.2-0.6,0-0.9l-0.5-0.5c0.2-0.4,0.3-0.7,0.4-1.1l0.6-0.1c0.3-0.1,0.5-0.4,0.5-0.7
			l-0.1-1.1c0-0.3-0.3-0.6-0.6-0.6l-0.6,0c-0.1-0.4-0.3-0.7-0.5-1.1l0.4-0.5C236.7,23.3,236.7,22.9,236.4,22.7z M232.4,28.8
			c-1.1,0.1-2.1-0.8-2.2-1.9c-0.1-1.1,0.8-2.1,1.9-2.2c1.1-0.1,2.1,0.8,2.2,1.9C234.4,27.7,233.6,28.7,232.4,28.8z"/>
		<path id="XMLID_70_" class="st0" d="M219.4,31.6c-0.3,0-0.6,0.3-0.6,0.6l0,0.6c0,0.3,0.2,0.6,0.6,0.6l0.5,0.1
			c0.1,0.3,0.2,0.6,0.3,0.8l-0.3,0.4c-0.2,0.3-0.2,0.6,0,0.9l0.5,0.5c0.2,0.2,0.6,0.3,0.9,0.1l0.4-0.3c0.3,0.2,0.6,0.3,0.9,0.4
			l0.1,0.5c0,0.3,0.3,0.6,0.6,0.6l0.6,0c0.3,0,0.6-0.2,0.6-0.6l0.1-0.5c0.3-0.1,0.6-0.2,0.9-0.4l0.4,0.3c0.3,0.2,0.6,0.2,0.9,0
			l0.5-0.5c0.2-0.2,0.3-0.6,0.1-0.9l-0.3-0.4c0.2-0.3,0.3-0.6,0.4-0.9l0.4,0c0.3,0,0.6-0.3,0.6-0.6l0-0.6c0-0.3-0.2-0.6-0.6-0.6
			l-0.4-0.1c-0.1-0.3-0.2-0.6-0.4-0.9l0.3-0.3c0.2-0.3,0.2-0.6,0-0.9l-0.5-0.5c-0.2-0.2-0.6-0.3-0.9-0.1l-0.3,0.2
			c-0.3-0.2-0.6-0.3-0.9-0.4l0-0.4c0-0.3-0.3-0.6-0.6-0.6l-0.6,0c-0.3,0-0.6,0.2-0.6,0.6l-0.1,0.4c-0.3,0.1-0.7,0.2-1,0.4l-0.3-0.3
			c-0.3-0.2-0.6-0.2-0.9,0l-0.5,0.5c-0.2,0.2-0.3,0.6-0.1,0.9l0.3,0.4c-0.2,0.3-0.3,0.6-0.4,0.9L219.4,31.6z M223.6,30.9
			c0.9,0,1.7,0.8,1.7,1.7c0,0.9-0.8,1.7-1.7,1.7c-0.9,0-1.7-0.8-1.7-1.7C221.9,31.6,222.7,30.9,223.6,30.9z"/>
	</g>
</g>
<g id="XMLID_65_">
	<g id="XMLID_110_">
		<path id="XMLID_107_" class="st0" d="M174.7,43.2c-10.1,0-18.2-8.2-18.2-18.2s8.2-18.2,18.2-18.2c10.1,0,18.2,8.2,18.2,18.2
			S184.8,43.2,174.7,43.2z M174.7,10c-8.3,0-15,6.7-15,15s6.7,15,15,15c8.3,0,15-6.7,15-15S183,10,174.7,10z"/>
	</g>
	<polygon id="XMLID_66_" class="st0" points="174.7,12.8 178.4,20.2 186.5,21.4 180.6,27.2 182,35.3 174.7,31.5 167.4,35.3 
		168.8,27.2 162.9,21.4 171.1,20.2 	"/>
</g>
<g id="XMLID_57_">
	<g id="XMLID_106_">
		<path id="XMLID_103_" class="st0" d="M75,43.2c-10.1,0-18.2-8.2-18.2-18.2c0-10.1,8.2-18.2,18.2-18.2S93.2,14.9,93.2,25
			C93.2,35.1,85.1,43.2,75,43.2z M75,10c-8.3,0-15,6.7-15,15c0,8.3,6.7,15,15,15s15-6.7,15-15C90,16.7,83.3,10,75,10z"/>
	</g>
	<g id="XMLID_58_">
		<path id="XMLID_59_" class="st0" d="M88.9,19.5c-0.2-0.2-0.5-0.1-0.7,0.1c-0.3,0.4-0.6,0.6-0.9,0.6c0-0.6-0.3-1.2-0.8-1.7
			c-0.5-0.5-1.2-0.6-1.7-0.2c-0.4,0.3-0.7,0.9-0.3,1.7c0.2,0.5,0.7,0.9,1.3,1.1c-0.1,0.1-0.2,0.1-0.4,0.2c-0.3,0.2-0.6,0.2-0.9,0.3
			c-1.5-3-5.2-5.1-9.7-5.1c-0.9,0-1.7,0.1-2.5,0.2c-1.3-0.8-3.6-1.8-6-1.7c0.1,1,0.7,2.2,1.5,3.1c-1.5,0.9-2.5,2.2-3,3.7
			c-0.6,0.3-1.2,0.4-1.9,0.5c-0.5,0-0.9,0.5-0.8,1c0.1,1.3,0.5,3.5,2,4.1c0.3,0.1,0.7,0.2,1.3,0.2c0.6,1.1,1.6,2,2.8,2.7
			c-0.2,1-0.4,2-0.7,3c-0.1,0.4,0.2,0.9,0.6,0.9h2.8c0.3,0,0.5-0.2,0.6-0.4c0.2-0.6,0.4-1.2,0.6-1.9c0.8,0.2,1.7,0.3,2.6,0.3
			c1.1,0,2.1-0.1,3-0.3c-0.1,0.5-0.3,1-0.4,1.5c-0.1,0.4,0.2,0.9,0.6,0.9h2.8c0.3,0,0.5-0.2,0.6-0.4c0.5-1.4,0.8-2.8,1-4.3
			c1.6-1.4,2.5-3.1,2.5-5.1c0-0.6-0.1-1.2-0.3-1.7c0.3-0.1,0.7-0.2,1-0.3c0.5-0.3,0.9-0.6,1.1-0.9c0.9,0,1.7-0.4,2.1-1.1
			C89.2,20,89.1,19.7,88.9,19.5z M68.6,22c-0.5,0-0.8-0.4-0.8-0.8s0.4-0.8,0.8-0.8s0.8,0.4,0.8,0.8S69.1,22,68.6,22z M77.5,23
			c-0.4,0.1-0.7-0.1-0.9-0.4c-0.1-0.3-0.4-0.6-1-0.6c-0.5,0-0.8,0.3-0.8,0.6c0,0.4,0.3,0.7,1,0.8c1.5,0.3,2.1,1.4,2,2.3
			c-0.1,0.8-0.7,1.5-1.5,1.7v0.4c0,0.4-0.3,0.7-0.7,0.7c-0.4,0-0.7-0.3-0.7-0.7v-0.4c-0.9-0.2-1.5-0.8-1.7-1.4
			c-0.1-0.4,0.1-0.7,0.4-0.9c0.4-0.1,0.7,0.1,0.9,0.4c0.1,0.3,0.5,0.6,1,0.6c0.5,0,0.8-0.3,0.8-0.6c0-0.4-0.3-0.7-1-0.8
			c-1.5-0.3-2.1-1.4-2-2.3c0.1-0.8,0.7-1.5,1.5-1.7v-0.4c0-0.4,0.3-0.7,0.7-0.7c0.4,0,0.7,0.3,0.7,0.7v0.4c0.9,0.2,1.5,0.8,1.7,1.4
			C78,22.5,77.9,22.8,77.5,23z M85.3,19.6c-0.1-0.2-0.1-0.4,0-0.4c0,0,0.1,0,0.1,0c0.1,0,0.2,0,0.3,0.2c0.3,0.3,0.5,0.7,0.5,1
			C85.8,20.1,85.5,19.9,85.3,19.6z"/>
	</g>
</g>
<g id="XMLID_33_">
	<g id="XMLID_102_">
		<path id="XMLID_99_" class="st0" d="M125,43.2c-10.1,0-18.2-8.2-18.2-18.2S114.9,6.8,125,6.8s18.2,8.2,18.2,18.2
			S135.1,43.2,125,43.2z M125,10c-8.3,0-15,6.7-15,15s6.7,15,15,15s15-6.7,15-15S133.3,10,125,10z"/>
	</g>
	<g id="XMLID_34_">
		<g id="XMLID_35_">
			<path id="XMLID_37_" class="st0" d="M123.3,18.7c0.9,0,1.8-0.4,2.4-1.1c0.6-0.7,0.9-1.7,0.8-2.6c-0.1-0.9-0.6-1.7-1.4-2.3
				c-0.8-0.5-1.8-0.7-2.7-0.5c-0.9,0.2-1.7,0.8-2.1,1.6c-0.4,0.8-0.5,1.8-0.1,2.7c0.3,0.8,1,1.5,1.9,1.9
				C122.5,18.6,122.9,18.7,123.3,18.7z"/>
			<path id="XMLID_36_" class="st0" d="M131.4,12.2c-0.4-0.3-1-0.2-1.4,0.2c0,0-3,4.6-4.1,5.9c-0.8,0.9-1.5,1.2-2.6,1
				c-0.6-0.1-7.4-1.8-7.4-1.8c-0.5-0.1-1,0.2-1.1,0.6c-0.2,0.4,0,1,0.5,1.2c0,0,0.1,0,0.1,0.1l7.4,2.7c0,0.1,0.4,1.1,0.6,2.1
				c0.1,0.7,0.2,1.3,0.2,2c0,0.5,0,0.9,0,1.4c0,0.5,0.1,1,0.3,1.4c0,0.6,0,1.2-0.1,1.8c-0.1,0.7-0.2,1.3-0.3,2
				c-0.1,0.8-0.4,1.1-0.4,1.2c-0.3,0.1-0.6,0.1-0.9,0c-0.3,0-0.7-0.1-1-0.2c-0.3-0.1-0.6-0.2-0.8-0.3c-0.2-0.1-0.4-0.2-0.6-0.3
				c-0.1,0-0.2-0.1-0.3-0.1c-0.1,0-0.2,0-0.3,0c-0.2,0-0.4,0.1-0.6,0.2c-0.4,0.3-0.6,0.8-0.4,1.2c0.1,0.3,0.3,0.6,0.6,0.8
				c0.9,0.5,2,1,3,1.2c0.6,0.1,1.2,0.2,1.8,0.1c0.6-0.1,1.2-0.3,1.6-0.8c0.1-0.1,0.2-0.2,0.3-0.3c0,0,0,0,0,0c0,0,0,0,0,0
				c0-0.1,0.1-0.2,0.2-0.2c0.1-0.1,0.2-0.3,0.2-0.4c0.1-0.3,0.3-0.6,0.4-0.9c0.2-0.6,0.4-1.2,0.5-1.8c0.1-0.4,0.2-0.8,0.3-1.2
				c0.2,0,0.3,0,0.5-0.1c0.3,0.6,0.6,1.2,0.8,1.8c-0.6,0.2-0.9,1-0.7,1.6c0.2,0.4,0.4,0.8,0.7,1.1c0.3,0.4,0.7,0.6,1.2,0.8
				c0.3,0.1,0.5,0.1,0.8,0.1c0.5-0.1,1-0.5,1.1-1.1c0.2-1.2,0-2.5-0.3-3.7c-0.2-0.6-0.3-1.3-0.5-1.9c-0.1-0.4-0.3-0.8-0.4-1.2
				c0-0.1-0.1-0.2-0.1-0.2c0-0.3,0-0.5,0-0.8c0-0.3,0-0.5-0.1-0.8c-0.1-0.6-0.2-1.3-0.3-1.9c-0.2-1.3-0.6-2.6-1.1-3.8
				c-0.1-0.3-0.3-0.7-0.5-1l3.5-6.5C131.9,13,131.8,12.5,131.4,12.2C130.9,11.9,131.8,12.5,131.4,12.2z"/>
		</g>
	</g>
</g>
<g id="XMLID_29_">
	<g id="XMLID_98_">
		<path id="XMLID_95_" class="st0" d="M275,43.2c-10.1,0-18.2-8.2-18.2-18.2S264.9,6.8,275,6.8s18.2,8.2,18.2,18.2
			S285.1,43.2,275,43.2z M275,10c-8.3,0-15,6.7-15,15s6.7,15,15,15s15-6.7,15-15S283.3,10,275,10z"/>
	</g>
	<g id="XMLID_30_">
		<g id="Icons_3_">
			<path id="XMLID_31_" class="st0" d="M286.1,22.2c0-3.4-2.7-6.1-6.1-6.1c-2.2,0-4.1,1.2-5.2,2.9c-1.1-1.7-3-2.9-5.2-2.9
				c-3.4,0-6.1,2.7-6.1,6.1c0,1.8,0.8,3.5,2.1,4.6l8.6,8.6c0.1,0.1,0.3,0.2,0.6,0.2c0.2,0,0.4-0.1,0.6-0.2l8.6-8.6
				C285.3,25.7,286.1,24.1,286.1,22.2z"/>
		</g>
	</g>
</g>
<g id="XMLID_23_">
	<g id="XMLID_94_">
		<path id="XMLID_91_" class="st0" d="M25,43.2C14.9,43.2,6.8,35,6.8,25S14.9,6.7,25,6.7S43.2,14.9,43.2,25S35.1,43.2,25,43.2z
			 M25,9.9c-8.3,0-15,6.7-15,15c0,8.3,6.7,15,15,15s15-6.7,15-15C40,16.7,33.3,9.9,25,9.9z"/>
	</g>
	<g id="XMLID_24_">
		<g id="Layer_2_3_">
			<g id="XMLID_25_">
				<path id="XMLID_27_" class="st0" d="M21,20.5c0.1,1.7,0.8,1,0.9,1.7c0.2,1.2,1.3,2.1,2,2.4c0.4,0.2,0.8,0.3,1.2,0.3v0
					c0,0,0,0,0,0c0,0,0,0,0,0v0c0.4,0,0.8-0.1,1.2-0.3c0.7-0.3,1.8-1.2,2-2.4c0.1-0.7,0.8,0,0.9-1.7c0-0.7-0.4-0.8-0.4-0.8
					s0.2-1,0.3-1.8c0.1-1-0.6-3.4-4-3.4c0,0,0,0,0,0c0,0,0,0,0,0v0c0,0,0,0,0,0c0,0,0,0,0,0v0c0,0,0,0,0,0c0,0,0,0,0,0
					c-3.4,0-4.1,2.5-4,3.4c0.1,0.8,0.3,1.8,0.3,1.8S21,19.8,21,20.5z"/>
				<path id="XMLID_26_" class="st0" d="M32.9,28.8c-1.7-0.9-4.3-2-4.4-2c0,0,0,0,0,0c-0.1,0-0.1,0-0.2,0c-0.3,0-0.5,0.2-0.6,0.5
					c0,0,0,0,0,0c-0.4,1.1-1.3,3-1.8,3.9l-0.1-2.6c0,0,0.8-1.6,0.9-1.8c0.2-0.4,0-0.6-0.4-0.6c-0.2,0-0.6,0-1.1,0c0,0,0,0,0,0
					c0,0,0,0,0,0c0,0,0,0,0,0c0,0,0,0,0,0s0,0,0,0c0,0,0,0,0,0c0,0,0,0,0,0c0,0,0,0,0,0c-0.5,0-0.9,0-1.1,0c-0.4,0-0.5,0.3-0.4,0.6
					c0.1,0.1,0.9,1.8,0.9,1.8l-0.1,2.6c-0.5-0.9-1.3-2.9-1.8-3.9c0,0,0,0,0,0c-0.1-0.3-0.3-0.5-0.6-0.5c-0.1,0-0.2,0-0.2,0
					c0,0,0,0,0,0c-0.1,0-2.6,1.1-4.4,2c-0.8,0.4-1.3,0.9-1.3,1.4c0,1.7,0,4.1,0,4.1h9h0h0h0h0h0h0h0h0h0h0h0h0h9c0,0,0-2.4,0-4.1
					C34.2,29.7,33.7,29.2,32.9,28.8z"/>
			</g>
		</g>
	</g>
</g>
</svg>
