<?xml version="1.0" encoding="utf-8"?>
<!-- Generator: Adobe Illustrator 19.0.1, SVG Export Plug-In . SVG Version: 6.00 Build 0)  -->
<svg version="1.1" id="Layer_1" xmlns:sketch="http://www.bohemiancoding.com/sketch/ns"
	 xmlns="http://www.w3.org/2000/svg" xmlns:xlink="http://www.w3.org/1999/xlink" x="0px" y="0px" viewBox="-142 21 14 10"
	 style="enable-background:new -142 21 14 10;" xml:space="preserve">
<style type="text/css">
	.st0{fill:#FFA300;}
</style>
<title>checkmark-icon</title>
<desc>Created with Sketch.</desc>
<g id="Icons" sketch:type="MSPage">
	<path id="checkmark-icon" sketch:type="MSShapeGroup" class="st0" d="M-128.9,22.8c0,0.2-0.1,0.4-0.2,0.5l-5.7,5.7l-1.1,1.1
		c-0.1,0.1-0.3,0.2-0.5,0.2s-0.4-0.1-0.5-0.2L-138,29l-2.8-2.8c-0.1-0.1-0.2-0.3-0.2-0.5s0.1-0.4,0.2-0.5l1.1-1.1
		c0.1-0.1,0.3-0.2,0.5-0.2s0.4,0.1,0.5,0.2l2.3,2.3l5.1-5.1c0.1-0.1,0.3-0.2,0.5-0.2s0.4,0.1,0.5,0.2l1.1,1.1
		C-129,22.4-128.9,22.6-128.9,22.8L-128.9,22.8z"/>
</g>
</svg>
