<svg width="100" height="50" viewBox="0 0 100 50" xmlns="http://www.w3.org/2000/svg"><title>contact-sprite</title><g fill="#FFF" fill-rule="evenodd"><path d="M87.996 21.333v11.075c0 .614-.218 1.14-.655 1.576-.436.437-.962.656-1.575.656H65.232c-.614 0-1.14-.22-1.576-.656-.437-.437-.656-.962-.656-1.576V21.333c.41.455.88.86 1.41 1.213 3.365 2.288 5.676 3.892 6.93 4.813.53.39.962.694 1.292.912.33.22.77.442 1.318.67.55.228 1.06.342 1.534.342h.028c.474 0 .986-.114 1.535-.342.548-.228.988-.45 1.318-.67.33-.218.76-.523 1.29-.913 1.58-1.145 3.896-2.75 6.946-4.814.532-.362.996-.767 1.396-1.213zm0-4.1c0 .733-.227 1.436-.683 2.105-.456.67-1.023 1.242-1.702 1.716l-6.527 4.533c-.093.065-.29.207-.593.426-.302.218-.553.395-.753.53-.2.135-.442.286-.725.453-.284.167-.55.293-.802.377-.252.083-.484.125-.698.125h-.028c-.214 0-.446-.042-.697-.125-.25-.084-.52-.21-.802-.377-.284-.167-.526-.318-.726-.453-.2-.135-.452-.312-.754-.53-.302-.22-.5-.36-.593-.426-.846-.595-2.064-1.444-3.654-2.545-1.59-1.102-2.545-1.765-2.86-1.988-.577-.39-1.12-.928-1.633-1.61-.51-.685-.767-1.32-.767-1.905 0-.727.193-1.33.58-1.815.385-.483.936-.725 1.652-.725h20.533c.604 0 1.127.22 1.57.656.44.437.66.962.66 1.576zM36.57 31.045c0 .3-.054.694-.166 1.18-.112.485-.23.868-.352 1.147-.234.558-.915 1.15-2.042 1.774-1.05.57-2.087.854-3.114.854-.3 0-.594-.02-.88-.06-.283-.038-.604-.107-.96-.208-.358-.1-.624-.18-.797-.243-.174-.062-.483-.176-.93-.344-.446-.167-.72-.268-.82-.3-1.094-.392-2.07-.855-2.93-1.39-1.428-.882-2.904-2.085-4.428-3.608-1.523-1.524-2.726-3-3.607-4.428-.536-.86-1-1.836-1.39-2.93-.033-.1-.134-.374-.3-.82-.17-.447-.283-.756-.344-.93-.06-.172-.142-.438-.242-.795-.1-.357-.17-.678-.21-.962-.038-.285-.058-.578-.058-.88 0-1.026.285-2.064.854-3.113.625-1.127 1.216-1.808 1.774-2.042.28-.123.662-.24 1.147-.352.486-.112.88-.167 1.18-.167.157 0 .274.015.352.05.2.066.497.49.887 1.27.123.213.29.515.502.905.212.39.408.745.586 1.063.18.318.352.617.52.896.033.044.13.184.292.418.162.235.282.433.36.595.078.162.117.32.117.477 0 .223-.158.502-.476.837-.318.336-.664.643-1.038.922-.374.28-.72.574-1.038.887-.318.31-.477.568-.477.77 0 .1.03.225.085.376.056.15.103.265.142.343.04.077.117.21.235.4.117.19.18.296.192.32.848 1.528 1.82 2.84 2.913 3.933 1.094 1.094 2.405 2.065 3.934 2.913.024.01.13.075.32.192.19.118.323.196.4.235.08.04.194.086.344.142.15.056.277.084.377.084.202 0 .46-.16.77-.478.314-.318.61-.664.888-1.038.28-.374.586-.72.92-1.038.336-.318.615-.477.838-.477.156 0 .315.038.477.116.162.078.36.198.595.36.234.162.374.26.418.293.28.166.578.34.896.518.318.178.672.374 1.063.586.39.212.692.38.904.502.78.39 1.204.686 1.27.887.035.078.05.195.05.352z"/></g></svg>