<svg width="550" height="100" viewBox="0 0 550 100" xmlns="http://www.w3.org/2000/svg"><title>services-sprite</title><g fill="none" fill-rule="evenodd"><g transform="translate(256 57)"><circle fill="#3BB0C9" cx="19" cy="19.2" r="18.7"/><g fill="#FFF"><path d="M30.9 20.3c0-4.7-2.9-8.8-7.1-10.5l-1.5 2.1c3.5 1.2 6.1 4.5 6.1 8.4 0 4.9-4 8.9-8.9 8.9s-8.9-4-8.9-8.9c0-3.9 2.6-7.3 6.1-8.4l-1.5-2.1c-4.1 1.7-7.1 5.8-7.1 10.5 0 6.3 5.1 11.4 11.4 11.4 6.3 0 11.4-5.1 11.4-11.4M17.6 11.7l.8 1.1 1.1-.1 1.1.1.8-1.1L23 9.5 24.8 7l-1.7-2.1h-7.2L14.2 7 16 9.5l1.6 2.2z"/></g></g><g transform="translate(206 57)"><circle fill="#3BB0C9" cx="19" cy="19.6" r="18.7"/><path d="M22 15.3c-2.8 0-5.1 2.3-5.1 5.1s2.3 5.1 5.1 5.1 5.1-2.3 5.1-5.1-2.3-5.1-5.1-5.1zm0 8.8c-2 0-3.7-1.6-3.7-3.7 0-2 1.6-3.7 3.7-3.7 2 0 3.7 1.6 3.7 3.7 0 2-1.7 3.7-3.7 3.7zM27.2 12H11.1c-1.9 0-3.5 1.6-3.5 3.5v10c0 1.9 1.6 3.5 3.5 3.5h16.1c1.9 0 3.5-1.6 3.5-3.5v-10c0-1.9-1.6-3.5-3.5-3.5zm-11.7 3.5H11v-1.7h4.5v1.7zM22 26.7c-3.5 0-6.3-2.8-6.3-6.3s2.8-6.3 6.3-6.3 6.3 2.8 6.3 6.3-2.8 6.3-6.3 6.3zm.6-18.9h-6.9V11h6.9V7.8z" fill="#FFF"/></g><g transform="translate(6 57)"><circle fill="#3BB0C9" cx="18.9" cy="18.7" r="18.7"/><path d="M18.9 29.8c6.2 0 11.2-5 11.2-11.2 0-6.2-5-11.2-11.2-11.2-6.2 0-11.2 5-11.2 11.2.1 6.2 5.1 11.2 11.2 11.2zm3.3-20.4c1.6.6 3.1 1.6 4.2 2.9l-4.1 4.2c-.4-.6-1-1.1-1.6-1.4l1.5-5.7zm-1.6-.5l-.5 5.9c-.2-.1-.4-.1-.7-.1l-.8-5.8c.7-.1 1.3-.1 2 0zm-1.7 7.9c1 0 1.8.8 1.8 1.8s-.8 1.8-1.8 1.8-1.8-.8-1.8-1.8.8-1.8 1.8-1.8zm-2.5 5c.6.5 1.3.8 2 .9l-2 5.5c-1.6-.4-3.2-1.3-4.4-2.5l4.4-3.9z" fill="#FFF"/></g><g fill="#3BB0C9"><path d="M24.9 47.3c-11.7 0-21.2-9.5-21.2-21.2S13.2 4.9 24.9 4.9s21.2 9.5 21.2 21.2-9.5 21.2-21.2 21.2zm0-37.4C16 9.9 8.7 17.1 8.7 26.1c0 8.9 7.3 16.2 16.2 16.2 8.9 0 16.2-7.3 16.2-16.2 0-9-7.3-16.2-16.2-16.2z"/><path d="M24.9 37.2c6.2 0 11.2-5 11.2-11.2 0-6.2-5-11.2-11.2-11.2-6.2 0-11.2 5-11.2 11.2 0 6.2 5 11.2 11.2 11.2zm3.3-20.4c1.6.6 3.1 1.6 4.2 2.9l-4.1 4.2c-.4-.6-1-1.1-1.6-1.4l1.5-5.7zm-1.7-.5l-.5 5.9c-.2-.1-.4-.1-.7-.1l-.8-5.8c.8-.1 1.4-.1 2 0zm-1.6 7.9c1 0 1.8.8 1.8 1.8s-.8 1.8-1.8 1.8-1.8-.8-1.8-1.8.8-1.8 1.8-1.8zm-2.5 5c.6.5 1.3.8 2 .9l-2 5.5c-1.6-.4-3.2-1.3-4.4-2.5l4.4-3.9z"/></g><g transform="translate(56 57)"><circle fill="#3BB0C9" cx="19.2" cy="18.7" r="18.7"/><g fill="#FFF"><path d="M15.2 28.2h8.3V31h-8.3zM8.8 11.1l6.4 15.7h8.3l2.6-6.4.6-1.3 3.3-8H8.8z"/></g></g><g fill="#3BB0C9"><path d="M75.2 47.5C63.5 47.5 54 38 54 26.3S63.5 5.1 75.2 5.1s21.2 9.5 21.2 21.2-9.5 21.2-21.2 21.2zm0-37.4c-8.9 0-16.2 7.3-16.2 16.2 0 8.9 7.3 16.2 16.2 16.2 8.9 0 16.2-7.3 16.2-16.2 0-8.9-7.3-16.2-16.2-16.2z"/><path d="M71.2 35.8h8.3v2.8h-8.3zM64.8 18.8l6.4 15.7h8.3l2.6-6.4.6-1.3 3.3-8H64.8z"/></g><g transform="translate(106 57)"><circle fill="#3BB0C9" cx="19" cy="19" r="18.7"/><path d="M27.5 23.7v-16L15.6 9.2v13.5c-.8-.8-1.8-1.3-3-1.3-2.3 0-4.1 1.8-4.1 4s1.8 4 4.1 4 4.1-1.8 4.1-4v-12l9.8-1.3v9.1c-.8-.8-1.8-1.3-3-1.3-2.3 0-4.1 1.8-4.1 4s1.8 4 4.1 4 4.1-1.8 4.1-4c-.1 0-.1-.1-.1-.2z" fill="#FFF"/></g><g fill="#3BB0C9"><path d="M125 47.5c-11.7 0-21.2-9.5-21.2-21.2S113.3 5.1 125 5.1s21.2 9.5 21.2 21.2-9.5 21.2-21.2 21.2zm0-37.4c-8.9 0-16.2 7.3-16.2 16.2 0 8.9 7.3 16.2 16.2 16.2 8.9 0 16.2-7.3 16.2-16.2 0-8.9-7.3-16.2-16.2-16.2z"/><path d="M133.5 31.1v-16l-11.9 1.5v13.5c-.8-.8-1.8-1.3-3-1.3-2.3 0-4.1 1.8-4.1 4s1.8 4 4.1 4 4.1-1.8 4.1-4v-12l9.8-1.3v9.1c-.8-.8-1.8-1.3-3-1.3-2.3 0-4.1 1.8-4.1 4s1.8 4 4.1 4 4.1-1.8 4.1-4c-.1-.1-.1-.2-.1-.2z"/></g><g transform="translate(156 57)"><circle fill="#3BB0C9" cx="19.1" cy="19.2" r="18.7"/><g fill="#FFF"><path d="M26.8 26.8s-1.7.4-1.9-2.2c-.1-.8.1-2.8-2.8-2.2-1.9.5-5-.1-5-.1-2.6-.4-2.5 1.5-2.5 2.3-.2 2.6-1.9 2.2-1.9 2.2-2-.1-3.4-2.2-3.4-2.2 1.2 6 5.1 4.8 7 3.9 1.9-.9 3.5-.8 3.5-.8s1.6-.1 3.5.8c1.8.9 5.7 2.1 7-3.9-.1 0-1.5 2.1-3.5 2.2zM31.8 11.8c-1.2-.2-2.4-.4-3.5-.5-1.7-.1-3.4 0-5 .3-1.3.2-2.7.8-3.9.9-1.3-.1-2.6-.7-3.9-.9-1.5-.3-3.3-.3-5-.3-1.2.1-2.3.3-3.5.5-.2.9-.1 1.3.1 1.5 0 .1.1.1.1.1.1.1.3 0 .5.1.5.4.5 1.9.6 2.7.1.5.2 1.1.4 1.6.1.2.1.3.2.4.1.2.2.3.3.4.1.1.2.2.3.2.3.2.7.3 1.1.4.4.1.8.2 1.2.2.7.1 1.5 0 2.3-.2.5-.1.9-.3 1.3-.4.4-.2.7-.4 1-.6l.1-.1c.1-.1.2-.2.3-.4.2-.2.3-.4.5-.6.1-.1.2-.3.3-.4l.3-.6c.1-.1.1-.3.2-.4.1-.2.2-.4.2-.6.1-.2.1-.3.2-.4.1-.2.3-.5.4-.6.1-.1.3-.2.5-.3.2 0 .4.1.5.3.2.2.3.4.4.6.1.1.1.3.2.4.1.2.2.4.2.6.1.1.1.3.2.4l.3.6c.1.1.2.3.3.4.1.2.3.4.5.6.1.1.2.3.3.4l.1.1c.3.2.6.5 1 .6.4.2.9.3 1.3.4.8.2 1.6.2 2.3.2.3 0 .8-.1 1.2-.2.4-.1.8-.2 1.1-.4.1-.1.2-.2.3-.2.1-.1.2-.2.3-.4.1-.1.1-.3.2-.4.2-.5.3-1.1.4-1.6.2-.8.1-2.3.6-2.7.1-.1.3 0 .5-.1l.1-.1c.1-.2.3-.6.1-1.5z"/></g></g><g fill="#3BB0C9"><path d="M175 47.2c-11.7 0-21.2-9.5-21.2-21.2S163.3 4.8 175 4.8s21.2 9.5 21.2 21.2-9.5 21.2-21.2 21.2zm0-37.4c-8.9 0-16.2 7.3-16.2 16.2 0 8.9 7.3 16.2 16.2 16.2 8.9 0 16.2-7.3 16.2-16.2 0-8.9-7.3-16.2-16.2-16.2z"/><path d="M182.7 33.6s-1.7.4-1.9-2.2c-.1-.8.1-2.8-2.8-2.2-1.9.5-5-.1-5-.1-2.6-.4-2.5 1.5-2.5 2.3-.2 2.6-1.9 2.2-1.9 2.2-2-.1-3.4-2.2-3.4-2.2 1.2 6 5.1 4.8 7 3.9 1.9-.9 3.5-.8 3.5-.8s1.6-.1 3.5.8c1.8.9 5.7 2.1 7-3.9-.1 0-1.5 2.2-3.5 2.2zM187.6 18.6c-1.2-.2-2.4-.4-3.5-.5-1.7-.1-3.4 0-5 .3-1.3.2-2.7.8-3.9.9-1.3-.1-2.6-.7-3.9-.9-1.5-.3-3.3-.3-5-.3-1.2.1-2.3.3-3.5.5-.2.9-.1 1.3.1 1.5 0 .1.1.1.1.1.1.1.3 0 .5.1.5.4.5 1.9.6 2.7.1.5.2 1.1.4 1.6.1.2.1.3.2.4.1.2.2.3.3.4.1.1.2.2.3.2.3.2.7.3 1.1.4.4.1.8.2 1.2.2.7.1 1.5 0 2.3-.2.5-.1.9-.3 1.3-.4.4-.2.7-.4 1-.6l.1-.1c.1-.1.2-.2.3-.4.2-.2.3-.4.5-.6.1-.1.2-.3.3-.4l.3-.6c.1-.1.1-.3.2-.4.1-.2.2-.4.2-.6.1-.2.1-.3.2-.4.1-.2.3-.5.4-.6.1-.1.3-.2.5-.3.2 0 .4.1.5.3.2.2.3.4.4.6.1.1.1.3.2.4.1.2.2.4.2.6.1.1.1.3.2.4l.3.6c.1.1.2.3.3.4.1.2.3.4.5.6.1.1.2.3.3.4l.1.1c.3.2.6.5 1 .6.4.2.9.3 1.3.4.8.2 1.6.2 2.3.2.3 0 .8-.1 1.2-.2.4-.1.8-.2 1.1-.4.1-.1.2-.2.3-.2.1-.1.2-.2.3-.4.1-.1.1-.3.2-.4.2-.5.3-1.1.4-1.6.2-.8.1-2.3.6-2.7.1-.1.3 0 .5-.1l.1-.1c.2-.1.4-.6.1-1.5z"/></g><g fill="#3BB0C9"><path d="M225 47.2c-11.7 0-21.2-9.5-21.2-21.2S213.3 4.8 225 4.8s21.2 9.5 21.2 21.2-9.5 21.2-21.2 21.2zm0-37.4c-8.9 0-16.2 7.3-16.2 16.2 0 8.9 7.3 16.2 16.2 16.2 8.9 0 16.2-7.3 16.2-16.2 0-8.9-7.3-16.2-16.2-16.2z"/><path d="M228 21.7c-2.8 0-5.1 2.3-5.1 5.1s2.3 5.1 5.1 5.1 5.1-2.3 5.1-5.1-2.3-5.1-5.1-5.1zm0 8.8c-2 0-3.7-1.6-3.7-3.7 0-2 1.6-3.7 3.7-3.7 2 0 3.7 1.6 3.7 3.7 0 2-1.7 3.7-3.7 3.7zm5.2-12.1h-16.1c-1.9 0-3.5 1.6-3.5 3.5v10c0 1.9 1.6 3.5 3.5 3.5h16.1c1.9 0 3.5-1.6 3.5-3.5v-10c0-1.9-1.6-3.5-3.5-3.5zm-11.7 3.5H217v-1.7h4.5v1.7zm6.5 11.2c-3.5 0-6.3-2.8-6.3-6.3s2.8-6.3 6.3-6.3 6.3 2.8 6.3 6.3-2.8 6.3-6.3 6.3zm.6-18.9h-6.9v3.2h6.9v-3.2z"/></g><g fill="#3BB0C9"><path d="M275 47.1c-11.7 0-21.2-9.5-21.2-21.2S263.3 4.7 275 4.7s21.2 9.5 21.2 21.2-9.5 21.2-21.2 21.2zm0-37.4c-8.9 0-16.2 7.3-16.2 16.2 0 8.9 7.3 16.2 16.2 16.2 8.9 0 16.2-7.3 16.2-16.2 0-8.9-7.3-16.2-16.2-16.2z"/><path d="M286.9 27.1c0-4.7-2.9-8.8-7.1-10.5l-1.5 2.1c3.5 1.2 6.1 4.5 6.1 8.4 0 4.9-4 8.9-8.9 8.9s-8.9-4-8.9-8.9c0-3.9 2.6-7.3 6.1-8.4l-1.5-2.1c-4.1 1.7-7.1 5.8-7.1 10.5 0 6.3 5.1 11.4 11.4 11.4 6.3 0 11.4-5.1 11.4-11.4M273.6 18.4l.8 1.2 1.1-.1 1.1.1.8-1.2 1.6-2.1 1.8-2.5-1.7-2.1h-7.2l-1.7 2.1 1.8 2.5 1.6 2.1z"/></g><g transform="translate(306 57)"><circle fill="#3BB0C9" cx="18.9" cy="19" r="18.7"/><path d="M25.7 9.4h-2.1V8h-1.8c-.6-.8-1.7-1.4-2.9-1.4-1.3 0-2.4.6-2.9 1.4h-1.8v1.4h-2.1c-1.5 0-2.7 1.2-2.7 2.7v13.7c0 1.5 1.2 2.7 2.7 2.7h13.7c1.5 0 2.7-1.2 2.7-2.7V12.1c0-1.5-1.2-2.7-2.8-2.7zm-10.2 0H17c0-.8.9-1.4 1.9-1.4 1 0 1.9.6 1.9 1.4h1.5v2.7h-6.8V9.4zm8.2 15h-9.6c-.4 0-.7-.3-.7-.7 0-.4.3-.7.7-.7h9.6c.4 0 .7.3.7.7 0 .4-.3.7-.7.7zm0-3.4h-9.6c-.4 0-.7-.3-.7-.7 0-.4.3-.7.7-.7h9.6c.4 0 .7.3.7.7 0 .4-.3.7-.7.7zm0-3.4h-9.6c-.4 0-.7-.3-.7-.7 0-.4.3-.7.7-.7h9.6c.4 0 .7.3.7.7 0 .4-.3.7-.7.7z" fill="#FFF"/></g><g fill="#3BB0C9"><path d="M325 47c-11.7 0-21.2-9.5-21.2-21.2S313.3 4.6 325 4.6s21.2 9.5 21.2 21.2S336.7 47 325 47zm0-37.4c-8.9 0-16.2 7.3-16.2 16.2 0 8.9 7.3 16.2 16.2 16.2 8.9 0 16.2-7.3 16.2-16.2 0-8.9-7.3-16.2-16.2-16.2z"/><path d="M331.8 16.2h-2.1v-1.4h-1.8c-.6-.8-1.7-1.4-2.9-1.4-1.3 0-2.4.6-2.9 1.4h-1.8v1.4h-2.1c-1.5 0-2.7 1.2-2.7 2.7v13.7c0 1.5 1.2 2.7 2.7 2.7h13.7c1.5 0 2.7-1.2 2.7-2.7V18.9c-.1-1.5-1.3-2.7-2.8-2.7zm-10.3 0h1.5c0-.8.9-1.4 1.9-1.4 1.1 0 1.9.6 1.9 1.4h1.5v2.7h-6.8v-2.7zm8.2 15.1h-9.6c-.4 0-.7-.3-.7-.7 0-.4.3-.7.7-.7h9.6c.4 0 .7.3.7.7 0 .4-.3.7-.7.7zm0-3.5h-9.6c-.4 0-.7-.3-.7-.7 0-.4.3-.7.7-.7h9.6c.4 0 .7.3.7.7 0 .4-.3.7-.7.7zm0-3.4h-9.6c-.4 0-.7-.3-.7-.7 0-.4.3-.7.7-.7h9.6c.4 0 .7.3.7.7 0 .4-.3.7-.7.7z"/></g><g transform="translate(356 57)"><circle fill="#3BB0C9" cx="19" cy="19.2" r="18.7"/><path d="M31 10.2c0-.1-.1-.2-.3-.2-.1 0-.2 0-.3.1-.4.6-1 .8-1.6 1-.5.2-1 .4-1.6.8-.8.6-1.2 1.4-1 2.1-.3-.5-.7-.9-1.1-1.4-1.8-1.9-4.4-3-7-3.1h-.3c-2.9 0-5.7 1.3-7.7 3.6-1.9 2.3-2.8 5.2-2.4 8.1 0 .2.1.5.1.7.7 3.2 2.6 5.6 5 6.6.6.3 1.2.4 1.8.4 1.5 0 2.8-.8 3.6-2.2.3-.5.5-1.1.6-1.6v-1c0-.3-.1-.6 0-.9.1-.7.6-1.1 1.3-1.1.2 0 .4 0 .6.1-.2.4-.5.9-.7 1.3-.4.8-.7 1.5-.8 2.1-.1.3-.3 1.2.3 1.6.2.1.4.2.7.1.2 0 .9-.2 2.8-2.4.5-.6 1.1-1.3 1.7-2 1.5-.5 2.7-1.8 3-3.2.1-.4.1-.8.1-1.2.6-.9 1.1-1.7 1.6-2.6v-.1c.7-.2 1.3-.8 1.7-1.5.5-1.1.5-2.6-.1-4.1zm-8.2 5.4c-.3.4-.7.7-1.2.7-.3 0-.5-.1-.8-.2-.3-.2-.5-.5-.6-.9-.1-.4 0-.7.2-1.1.3-.4.7-.7 1.2-.7.3 0 .5.1.8.2.3.2.5.5.6.9.1.4 0 .8-.2 1.1zm1.9 2.6c.7-1.1 1.5-2.1 2.2-3 .1.1.2.2.4.3.2.2.5.3.7.4-.6 1-1.3 2.1-2.1 3.2-1.3 1.9-2.7 3.7-3.8 5-.6.7-1.2 1.3-1.6 1.7.2-.5.5-1.3.9-2.1.8-1.7 2-3.6 3.3-5.5zm-12.6 0c-.3 0-.5-.1-.8-.2-.3-.2-.5-.5-.6-.9-.1-.4 0-.7.2-1.1.3-.4.7-.7 1.2-.7.3 0 .5.1.8.2.7.4.9 1.3.4 2-.3.4-.7.7-1.2.7zm-1.5 3.1c.3-.4.7-.7 1.2-.7.3 0 .5.1.8.2.3.2.5.5.6.9.1.4 0 .7-.2 1.1-.3.4-.7.7-1.2.7-.3 0-.5-.1-.8-.2-.3-.2-.5-.5-.6-.9-.1-.4 0-.8.2-1.1zm4.5-8.4c.3-.4.7-.7 1.2-.7.3 0 .5.1.8.2.7.4.9 1.3.4 2-.3.4-.7.7-1.2.7-.3 0-.5-.1-.8-.2-.3-.2-.5-.5-.6-.9 0-.4 0-.8.2-1.1z" fill="#FFF"/></g><g fill="#3BB0C9"><path d="M375 47.2c-11.7 0-21.2-9.5-21.2-21.2S363.3 4.8 375 4.8s21.2 9.5 21.2 21.2-9.5 21.2-21.2 21.2zm0-37.4c-8.9 0-16.2 7.3-16.2 16.2 0 8.9 7.3 16.2 16.2 16.2 8.9 0 16.2-7.3 16.2-16.2 0-8.9-7.3-16.2-16.2-16.2z"/><path d="M387 17c0-.1-.1-.2-.3-.2-.1 0-.2 0-.3.1-.4.6-1 .8-1.6 1-.5.2-1 .4-1.6.8-.8.6-1.2 1.4-1 2.1-.3-.5-.7-.9-1.1-1.4-1.8-1.9-4.4-3-7-3.1h-.3c-2.9 0-5.7 1.3-7.7 3.6-1.9 2.3-2.8 5.2-2.4 8.1 0 .2.1.5.1.7.7 3.2 2.6 5.6 5 6.6.6.3 1.2.4 1.8.4 1.5 0 2.8-.8 3.6-2.2.3-.5.5-1.1.6-1.6v-1c0-.3-.1-.6 0-.9.1-.7.6-1.1 1.3-1.1.2 0 .4 0 .6.1-.2.4-.5.9-.7 1.3-.4.8-.7 1.5-.8 2.1-.1.3-.3 1.2.3 1.6.2.1.4.2.7.1.2 0 .9-.2 2.8-2.4.5-.6 1.1-1.3 1.7-2 1.5-.5 2.7-1.8 3-3.2.1-.4.1-.8.1-1.2.6-.9 1.1-1.7 1.6-2.6v-.1c.7-.2 1.3-.8 1.7-1.5.5-1.1.5-2.6-.1-4.1zm-8.2 5.4c-.3.4-.7.7-1.2.7-.3 0-.5-.1-.8-.2-.3-.2-.5-.5-.6-.9-.1-.4 0-.7.2-1.1.3-.4.7-.7 1.2-.7.3 0 .5.1.8.2.3.2.5.5.6.9.1.4 0 .8-.2 1.1zm1.9 2.6c.7-1.1 1.5-2.1 2.2-3 .1.1.2.2.4.3.2.2.5.3.7.4-.6 1-1.3 2.1-2.1 3.2-1.3 1.9-2.7 3.7-3.8 5-.6.7-1.2 1.3-1.6 1.7.2-.5.5-1.3.9-2.1.8-1.7 2-3.6 3.3-5.5zm-12.6 0c-.3 0-.5-.1-.8-.2-.3-.2-.5-.5-.6-.9-.1-.4 0-.7.2-1.1.3-.4.7-.7 1.2-.7.3 0 .5.1.8.2.7.4.9 1.3.4 2-.3.4-.7.7-1.2.7zm-1.5 3.1c.3-.4.7-.7 1.2-.7.3 0 .5.1.8.2.3.2.5.5.6.9.1.4 0 .7-.2 1.1-.3.4-.7.7-1.2.7-.3 0-.5-.1-.8-.2-.3-.2-.5-.5-.6-.9-.1-.4 0-.8.2-1.1zm4.5-8.4c.3-.4.7-.7 1.2-.7.3 0 .5.1.8.2.7.4.9 1.3.4 2-.3.4-.7.7-1.2.7-.3 0-.5-.1-.8-.2-.3-.2-.5-.5-.6-.9 0-.4 0-.8.2-1.1z"/></g><g transform="translate(405 57)"><circle fill="#3BB0C9" cx="19.5" cy="19.2" r="18.7"/><g fill="#FFF"><path d="M21.7 27.3h-4.1c-.3 0-.5.2-.5.5s.2.5.5.5h4.1c.3 0 .5-.2.5-.5.1-.2-.2-.5-.5-.5zM21.7 25.6h-4.1c-.3 0-.5.2-.5.5s.2.5.5.5h4.1c.3 0 .5-.2.5-.5.1-.2-.2-.5-.5-.5zM19.7 29.5l1.8-.6h-3.6l1.8.6zM19.7 12.2h-.1c-3 0-5.7 2.5-5.7 5.5s2.6 4.8 2.8 5.7c.3.9 0 1.4.7 1.6.7.2 2.2.2 2.2.2h.1s1.6 0 2.2-.2c.7-.2.4-.7.7-1.6.3-.9 2.8-2.7 2.8-5.7.1-3-2.6-5.5-5.7-5.5zM12.1 18.7c0-.4-.4-.8-1-.8h-3c-.5 0-.9.3-.9.8 0 .4.4.8.9.8h3c.6 0 1-.4 1-.8zM31.2 17.9h-3c-.5 0-.9.3-.9.8 0 .4.4.8.9.8h3c.5 0 .9-.3.9-.8 0-.4-.4-.8-.9-.8zM26.3 13.1l2.1-2.1c.4-.4.4-.9.1-1.2-.3-.3-.9-.2-1.2.1L25.2 12c-.4.4-.4.9-.1 1.2.3.3.8.2 1.2-.1zM19.6 10.7c.4 0 .8-.4.8-1v-3c0-.5-.3-.9-.8-.9-.4 0-.8.4-.8.9v3c0 .6.4 1 .8 1zM12.8 12.8c.4.4.9.4 1.2.1.3-.3.2-.8-.1-1.2l-2.1-2.1c-.4-.4-.9-.4-1.2-.1-.3.3-.2.9.1 1.2l2.1 2.1zM13.1 24.3L11 26.4c-.4.4-.4.9-.1 1.2.3.3.8.2 1.2-.1l2.1-2.1c.4-.4.4-.9.1-1.2-.3-.3-.9-.3-1.2.1zM26.5 24.6c-.4-.4-.9-.4-1.2-.1-.3.3-.2.9.1 1.2l2.1 2.1c.4.4.9.4 1.2.1.3-.3.2-.9-.1-1.2l-2.1-2.1z"/></g></g><g fill="#3BB0C9"><path d="M424.7 47.5c-11.7 0-21.2-9.5-21.2-21.2S413 5.1 424.7 5.1s21.2 9.5 21.2 21.2-9.5 21.2-21.2 21.2zm0-37.4c-8.9 0-16.2 7.3-16.2 16.2 0 8.9 7.3 16.2 16.2 16.2 8.9 0 16.2-7.3 16.2-16.2 0-9-7.3-16.2-16.2-16.2z"/><path d="M426.9 34.4h-4.1c-.3 0-.5.2-.5.5s.2.5.5.5h4.1c.3 0 .5-.2.5-.5.1-.3-.2-.5-.5-.5zM426.9 32.7h-4.1c-.3 0-.5.2-.5.5s.2.5.5.5h4.1c.3 0 .5-.2.5-.5.1-.3-.2-.5-.5-.5zM424.9 36.6l1.7-.7h-3.5l1.8.7zM424.9 19.3h-.1c-3 0-5.7 2.5-5.7 5.5s2.6 4.8 2.8 5.7c.3.9 0 1.4.7 1.6.7.2 2.2.2 2.2.2h.1s1.6 0 2.2-.2c.7-.2.4-.7.7-1.6.3-.9 2.8-2.7 2.8-5.7.1-3.1-2.7-5.5-5.7-5.5zM417.3 25.7c0-.4-.4-.8-1-.8h-3c-.5 0-.9.3-.9.8 0 .4.4.8.9.8h3c.6 0 1-.3 1-.8zM436.3 25h-3c-.5 0-.9.3-.9.8 0 .4.4.8.9.8h3c.5 0 .9-.3.9-.8.1-.5-.3-.8-.9-.8zM431.5 20.1l2.1-2.1c.4-.4.4-.9.1-1.2-.3-.3-.9-.2-1.2.1l-2.1 2.1c-.4.4-.4.9-.1 1.2.2.3.8.3 1.2-.1zM424.8 17.8c.4 0 .8-.4.8-1v-3c0-.5-.3-.9-.8-.9-.4 0-.8.4-.8.9v3c0 .6.4 1 .8 1zM418 19.8c.4.4.9.4 1.2.1.3-.3.2-.8-.1-1.2l-2.1-2.1c-.4-.4-.9-.4-1.2-.1-.3.3-.2.9.1 1.2l2.1 2.1zM418.2 31.3l-2.1 2.1c-.4.4-.4.9-.1 1.2.3.3.8.2 1.2-.1l2.1-2.1c.4-.4.4-.9.1-1.2-.2-.3-.8-.2-1.2.1zM431.7 31.6c-.4-.4-.9-.4-1.2-.1-.3.3-.2.9.1 1.2l2.1 2.1c.4.4.9.4 1.2.1.3-.3.2-.9-.1-1.2l-2.1-2.1z"/></g><g transform="translate(456 57)"><circle fill="#3BB0C9" cx="19" cy="19" r="18.7"/><g fill="#FFF"><path d="M20.6 7.6c-2.2 0-4.1 1.8-4.1 4.1 0 2.2 1.8 4.1 4.1 4.1 2.2 0 4.1-1.8 4.1-4.1-.1-2.3-1.9-4.1-4.1-4.1zm-2.5 5.1c-.5 0-1-.4-1-1s.4-1 1-1c.5 0 1 .4 1 1 0 .5-.5 1-1 1zm2.5 2.5c-.5 0-1-.4-1-1s.4-1 1-1 1 .4 1 1c0 .5-.5 1-1 1zm0-5c-.5 0-1-.4-1-1s.4-1 1-1 1 .4 1 1c0 .5-.5 1-1 1zm2.5 2.5c-.6 0-1-.4-1-1s.4-1 1-1 1 .4 1 1c0 .5-.5 1-1 1zm-11.2 3c2.2 0 4.1-1.8 4.1-4.1 0-2.2-1.8-4.1-4.1-4.1-2.2 0-4.1 1.8-4.1 4.1s1.9 4.1 4.1 4.1zm2.5-5c.5 0 1 .4 1 1s-.4 1-1 1c-.5 0-1-.4-1-1s.5-1 1-1zm-2.5-2.5c.6 0 1 .4 1 1 0 .5-.4 1-1 1s-1-.4-1-1 .5-1 1-1zm0 5c.6 0 1 .4 1 1s-.4 1-1 1-1-.4-1-1 .5-1 1-1zm-3.5-1.5c0-.6.4-1 1-1 .5 0 1 .4 1 1s-.4 1-1 1c-.5 0-1-.5-1-1zm20.5 5.1v10.3h1.3V16.8h-1.3zm-9.2-.2h-7.3C10.5 16.6 9 18.1 9 20v4.1c0 1.9 1.5 3.4 3.4 3.4h7.3c1.9 0 3.4-1.5 3.4-3.4V20c0-1.9-1.6-3.4-3.4-3.4zM24.1 24.2l4 2.7v-9.8l-4 2.7v4.4z"/></g></g><g fill="#3BB0C9"><path d="M475 47.2c-11.7 0-21.2-9.5-21.2-21.2S463.3 4.8 475 4.8s21.2 9.5 21.2 21.2-9.5 21.2-21.2 21.2zm0-37.4c-8.9 0-16.2 7.3-16.2 16.2 0 8.9 7.3 16.2 16.2 16.2 8.9 0 16.2-7.3 16.2-16.2 0-8.9-7.3-16.2-16.2-16.2z"/><path d="M476.6 14.6c-2.2 0-4.1 1.8-4.1 4.1 0 2.2 1.8 4.1 4.1 4.1 2.2 0 4.1-1.8 4.1-4.1-.1-2.2-1.9-4.1-4.1-4.1zm-2.5 5.1c-.5 0-1-.4-1-1s.4-1 1-1c.5 0 1 .4 1 1s-.5 1-1 1zm2.5 2.5c-.5 0-1-.4-1-1s.4-1 1-1 1 .4 1 1-.5 1-1 1zm0-5c-.5 0-1-.4-1-1s.4-1 1-1 1 .4 1 1-.5 1-1 1zm2.5 2.5c-.6 0-1-.4-1-1s.4-1 1-1 1 .4 1 1-.5 1-1 1zm-11.2 3.1c2.2 0 4.1-1.8 4.1-4.1 0-2.2-1.8-4.1-4.1-4.1-2.2 0-4.1 1.8-4.1 4.1s1.9 4.1 4.1 4.1zm2.5-5.1c.5 0 1 .4 1 1s-.4 1-1 1c-.5 0-1-.4-1-1 0-.5.5-1 1-1zm-2.5-2.5c.6 0 1 .4 1 1 0 .5-.4 1-1 1s-1-.4-1-1c0-.5.5-1 1-1zm0 5c.6 0 1 .4 1 1s-.4 1-1 1-1-.4-1-1c0-.5.5-1 1-1zm-3.5-1.5c0-.6.4-1 1-1 .5 0 1 .4 1 1s-.4 1-1 1c-.5 0-1-.4-1-1zm20.5 5.2v10.3h1.3V23.9h-1.3zm-9.2-.3h-7.3c-1.9 0-3.4 1.5-3.4 3.4v4.1c0 1.9 1.5 3.4 3.4 3.4h7.3c1.9 0 3.4-1.5 3.4-3.4V27c0-1.9-1.6-3.4-3.4-3.4zM480.1 31.3l4 2.7v-9.9l-4 2.7v4.5z"/></g><g transform="translate(506 57)"><circle fill="#3BB0C9" cx="19" cy="19.2" r="18.7"/><g fill="#FFF"><path d="M11.4 15.5c-.2 0-.3-.1-.4-.2-.2-.2-.1-.6.1-.7l2.9-2.1c.2-.2.6-.1.7.1.2.2.1.6-.1.7l-2.9 2.1c-.1.1-.2.1-.3.1zM11.6 18.3c-.2 0-.3-.1-.4-.2-.2-.2-.1-.6.1-.7l6.1-4.3c.2-.2.6-.1.7.1.2.2.1.6-.1.7l-6.1 4.3s-.1.1-.3.1z"/><path d="M28.6 9.5H9.3c-.5 0-.9.4-.9.9V25.3c0 .5.4.9.9.9h7.1s.3 0 .3.2v1.3c0 .1 0 .2-.2.2h-1.8c-.4 0-.7.3-.7.7 0 .4.3.7.7.7h8.7c.4 0 .7-.3.7-.7 0-.4-.3-.7-.7-.7h-1.9c-.1 0-.1-.1-.1-.1v-1.4c0-.2.2-.2.2-.2h7.1c.5 0 .9-.4.9-.9V10.4c-.2-.5-.6-.9-1-.9zm-8.8 16.9v1.3c0 .1 0 .2-.1.2h-1.5c-.1 0-.1-.1-.1-.2v-1.3c0-.2.2-.2.2-.2h1.4c-.1 0 .1 0 .1.2zm-.9-1.2c-.5 0-.9-.4-.9-.9s.4-.9.9-.9.9.4.9.9-.4.9-.9.9zm9.3-3.3c0 .5-.4.9-.9.9H10.5c-.5 0-.9-.4-.9-.9V11.8c0-.5.4-.9.9-.9h16.8c.5 0 .9.4.9.9v10.1z"/></g></g><g fill="#3BB0C9"><path d="M525 47.2c-11.7 0-21.2-9.5-21.2-21.2S513.3 4.8 525 4.8s21.2 9.5 21.2 21.2-9.5 21.2-21.2 21.2zm0-37.4c-8.9 0-16.2 7.3-16.2 16.2 0 8.9 7.3 16.2 16.2 16.2 8.9 0 16.2-7.3 16.2-16.2 0-8.9-7.3-16.2-16.2-16.2z"/><path d="M517.4 22.4c-.2 0-.3-.1-.4-.2-.2-.2-.1-.6.1-.7l2.9-2.1c.2-.2.6-.1.7.1.2.2.1.6-.1.7l-2.9 2.1c-.1 0-.2.1-.3.1zM517.6 25.1c-.2 0-.3-.1-.4-.2-.2-.2-.1-.6.1-.7l6.1-4.3c.2-.2.6-.1.7.1.2.2.1.6-.1.7l-6.1 4.3c0 .1-.1.1-.3.1z"/><path d="M534.6 16.4h-19.3c-.5 0-.9.4-.9.9V32.2c0 .5.4.9.9.9h7.1s.3 0 .3.2v1.3c0 .1 0 .2-.2.2h-1.8c-.4 0-.7.3-.7.7 0 .4.3.7.7.7h8.7c.4 0 .7-.3.7-.7 0-.4-.3-.7-.7-.7h-1.9c-.1 0-.1-.1-.1-.1v-1.4c0-.2.2-.2.2-.2h7.1c.5 0 .9-.4.9-.9v-15c-.2-.4-.6-.8-1-.8zm-8.8 16.8v1.3c0 .1 0 .2-.1.2h-1.5c-.1 0-.1-.1-.1-.2v-1.3c0-.2.2-.2.2-.2h1.4c-.1 0 .1 0 .1.2zm-.9-1.2c-.5 0-.9-.4-.9-.9s.4-.9.9-.9.9.4.9.9c0 .6-.4.9-.9.9zm9.3-3.3c0 .5-.4.9-.9.9h-16.8c-.5 0-.9-.4-.9-.9v-10c0-.5.4-.9.9-.9h16.8c.5 0 .9.4.9.9v10z"/></g></g></svg>