<svg id="Layer_1" xmlns="http://www.w3.org/2000/svg" viewBox="150 101 600 100" height="100px" width="600px"><style>.st0{fill:#3BB0C9;} .st1{fill:#FFFFFF;} .st2{fill:#3AB0C8;} .st3{fill:none;stroke:#3AB0C8;stroke-width:5;}</style><g id="Icons"><g id="services-sprite"><g id="XMLID_259_" transform="translate(256 57)"><circle id="XMLID_263_" class="st0" cx="169" cy="120.2" r="18.7"/><g id="XMLID_260_"><path id="XMLID_262_" class="st1" d="M180.9 121.3c0-4.7-2.9-8.8-7.1-10.5l-1.5 2.1c3.5 1.2 6.1 4.5 6.1 8.4 0 4.9-4 8.9-8.9 8.9s-8.9-4-8.9-8.9c0-3.9 2.6-7.3 6.1-8.4l-1.5-2.1c-4.1 1.7-7.1 5.8-7.1 10.5 0 6.3 5.1 11.4 11.4 11.4s11.4-5.1 11.4-11.4"/><path id="XMLID_261_" class="st1" d="M167.6 112.7l.8 1.1 1.1-.1 1.1.1.8-1.1 1.6-2.2 1.8-2.5-1.7-2.1h-7.2l-1.7 2.1 1.8 2.5 1.6 2.2z"/></g></g><g id="XMLID_197_" transform="translate(206 57)"><circle id="XMLID_207_" class="st0" cx="169" cy="120.6" r="18.7"/><path id="XMLID_198_" class="st1" d="M172 116.3c-2.8 0-5.1 2.3-5.1 5.1s2.3 5.1 5.1 5.1 5.1-2.3 5.1-5.1-2.3-5.1-5.1-5.1zm0 8.8c-2 0-3.7-1.6-3.7-3.7 0-2 1.6-3.7 3.7-3.7 2 0 3.7 1.6 3.7 3.7 0 2-1.7 3.7-3.7 3.7zm5.2-12.1h-16.1c-1.9 0-3.5 1.6-3.5 3.5v10c0 1.9 1.6 3.5 3.5 3.5h16.1c1.9 0 3.5-1.6 3.5-3.5v-10c0-1.9-1.6-3.5-3.5-3.5zm-11.7 3.5H161v-1.7h4.5v1.7zm6.5 11.2c-3.5 0-6.3-2.8-6.3-6.3s2.8-6.3 6.3-6.3 6.3 2.8 6.3 6.3-2.8 6.3-6.3 6.3zm.6-18.9h-6.9v3.2h6.9v-3.2z"/></g><g id="XMLID_251_" transform="translate(6 57)"><circle id="XMLID_258_" class="st0" cx="168.9" cy="119.7" r="18.7"/><path id="XMLID_252_" class="st1" d="M168.9 130.8c6.2 0 11.2-5 11.2-11.2 0-6.2-5-11.2-11.2-11.2-6.2 0-11.2 5-11.2 11.2.1 6.2 5.1 11.2 11.2 11.2zm3.3-20.4c1.6.6 3.1 1.6 4.2 2.9l-4.1 4.2c-.4-.6-1-1.1-1.6-1.4l1.5-5.7zm-1.6-.5l-.5 5.9c-.2-.1-.4-.1-.7-.1l-.8-5.8c.7-.1 1.3-.1 2 0zm-1.7 7.9c1 0 1.8.8 1.8 1.8s-.8 1.8-1.8 1.8-1.8-.8-1.8-1.8.8-1.8 1.8-1.8zm-2.5 5c.6.5 1.3.8 2 .9l-2 5.5c-1.6-.4-3.2-1.3-4.4-2.5l4.4-3.9z"/></g><g id="XMLID_182_"><path id="XMLID_143_" class="st0" d="M174.9 148.3c-11.7 0-21.2-9.5-21.2-21.2s9.5-21.2 21.2-21.2 21.2 9.5 21.2 21.2-9.5 21.2-21.2 21.2zm0-37.4c-8.9 0-16.2 7.2-16.2 16.2 0 8.9 7.3 16.2 16.2 16.2 8.9 0 16.2-7.3 16.2-16.2 0-9-7.3-16.2-16.2-16.2z"/><path id="XMLID_183_" class="st0" d="M174.9 138.2c6.2 0 11.2-5 11.2-11.2s-5-11.2-11.2-11.2c-6.2 0-11.2 5-11.2 11.2s5 11.2 11.2 11.2zm3.3-20.4c1.6.6 3.1 1.6 4.2 2.9l-4.1 4.2c-.4-.6-1-1.1-1.6-1.4l1.5-5.7zm-1.7-.5l-.5 5.9c-.2-.1-.4-.1-.7-.1l-.8-5.8c.8-.1 1.4-.1 2 0zm-1.6 7.9c1 0 1.8.8 1.8 1.8s-.8 1.8-1.8 1.8-1.8-.8-1.8-1.8.8-1.8 1.8-1.8zm-2.5 5c.6.5 1.3.8 2 .9l-2 5.5c-1.6-.4-3.2-1.3-4.4-2.5l4.4-3.9z"/></g><g id="XMLID_208_" transform="translate(56 57)"><circle id="XMLID_212_" class="st0" cx="169.2" cy="119.7" r="18.7"/><g id="XMLID_209_"><path id="XMLID_211_" class="st1" d="M165.2 129.2h8.3v2.8h-8.3z"/><path id="XMLID_210_" class="st1" d="M158.8 112.1l6.4 15.7h8.3l2.6-6.4.6-1.3 3.3-8h-21.2z"/></g></g><g id="XMLID_139_"><path id="XMLID_195_" class="st0" d="M225.2 148.5c-11.7 0-21.2-9.5-21.2-21.2s9.5-21.2 21.2-21.2 21.2 9.5 21.2 21.2-9.5 21.2-21.2 21.2zm0-37.4c-8.9 0-16.2 7.3-16.2 16.2s7.3 16.2 16.2 16.2c8.9 0 16.2-7.3 16.2-16.2s-7.3-16.2-16.2-16.2z"/><g id="XMLID_140_"><path id="XMLID_142_" class="st0" d="M221.2 136.8h8.3v2.8h-8.3z"/><path id="XMLID_141_" class="st0" d="M214.8 119.8l6.4 15.7h8.3l2.6-6.4.6-1.3 3.3-8h-21.2z"/></g></g><g id="XMLID_23_" transform="translate(106 57)"><circle id="XMLID_264_" class="st0" cx="169" cy="120" r="18.7"/><path id="XMLID_127_" class="st1" d="M177.5 124.7v-16l-11.9 1.5v13.5c-.8-.8-1.8-1.3-3-1.3-2.3 0-4.1 1.8-4.1 4s1.8 4 4.1 4 4.1-1.8 4.1-4v-12l9.8-1.3v9.1c-.8-.8-1.8-1.3-3-1.3-2.3 0-4.1 1.8-4.1 4s1.8 4 4.1 4 4.1-1.8 4.1-4c-.1 0-.1-.1-.1-.2z"/></g><g id="XMLID_1_"><path id="XMLID_196_" class="st0" d="M275 148.5c-11.7 0-21.2-9.5-21.2-21.2s9.5-21.2 21.2-21.2 21.2 9.5 21.2 21.2-9.5 21.2-21.2 21.2zm0-37.4c-8.9 0-16.2 7.3-16.2 16.2s7.3 16.2 16.2 16.2 16.2-7.3 16.2-16.2-7.3-16.2-16.2-16.2z"/><path id="XMLID_126_" class="st0" d="M283.5 132.1v-16l-11.9 1.5v13.5c-.8-.8-1.8-1.3-3-1.3-2.3 0-4.1 1.8-4.1 4s1.8 4 4.1 4 4.1-1.8 4.1-4v-12l9.8-1.3v9.1c-.8-.8-1.8-1.3-3-1.3-2.3 0-4.1 1.8-4.1 4s1.8 4 4.1 4 4.1-1.8 4.1-4c-.1-.1-.1-.2-.1-.2z"/></g><g id="XMLID_31_" transform="translate(156 57)"><circle id="XMLID_265_" class="st0" cx="169.1" cy="120.2" r="18.7"/><g id="XMLID_247_"><path id="XMLID_250_" class="st1" d="M176.8 127.8s-1.7.4-1.9-2.2c-.1-.8.1-2.8-2.8-2.2-1.9.5-5-.1-5-.1-2.6-.4-2.5 1.5-2.5 2.3-.2 2.6-1.9 2.2-1.9 2.2-2-.1-3.4-2.2-3.4-2.2 1.2 6 5.1 4.8 7 3.9 1.9-.9 3.5-.8 3.5-.8s1.6-.1 3.5.8c1.8.9 5.7 2.1 7-3.9-.1 0-1.5 2.1-3.5 2.2z"/><path id="XMLID_248_" class="st1" d="M181.8 112.8c-1.2-.2-2.4-.4-3.5-.5-1.7-.1-3.4 0-5 .3-1.3.2-2.7.8-3.9.9-1.3-.1-2.6-.7-3.9-.9-1.5-.3-3.3-.3-5-.3-1.2.1-2.3.3-3.5.5-.2.9-.1 1.3.1 1.5 0 .1.1.1.1.1.1.1.3 0 .5.1.5.4.5 1.9.6 2.7.1.5.2 1.1.4 1.6.1.2.1.3.2.4.1.2.2.3.3.4.1.1.2.2.3.2.3.2.7.3 1.1.4.4.1.8.2 1.2.2.7.1 1.5 0 2.3-.2.5-.1.9-.3 1.3-.4.4-.2.7-.4 1-.6l.1-.1s.2-.2.3-.4c.2-.2.3-.4.5-.6.1-.1.2-.3.3-.4l.3-.6c.1-.1.1-.3.2-.4.1-.2.2-.4.2-.6.1-.2.1-.3.2-.4.1-.2.3-.5.4-.6.1-.1.3-.2.5-.3.2 0 .4.1.5.3.2.2.3.4.4.6.1.1.1.3.2.4.1.2.2.4.2.6.1.1.1.3.2.4l.3.6c.1.1.2.3.3.4.1.2.3.4.5.6.1.1.2.3.3.4l.1.1c.3.2.6.5 1 .6.4.2.9.3 1.3.4.8.2 1.6.2 2.3.2.3 0 .8-.1 1.2-.2.4-.1.8-.2 1.1-.4.1-.1.2-.2.3-.2.1-.1.2-.2.3-.4.1-.1.1-.3.2-.4.2-.5.3-1.1.4-1.6.2-.8.1-2.3.6-2.7.1-.1.3 0 .5-.1l.1-.1c.1-.2.3-.6.1-1.5z"/></g></g><g id="XMLID_28_"><path id="XMLID_138_" class="st0" d="M325 148.2c-11.7 0-21.2-9.5-21.2-21.2s9.5-21.2 21.2-21.2 21.2 9.5 21.2 21.2-9.5 21.2-21.2 21.2zm0-37.4c-8.9 0-16.2 7.3-16.2 16.2s7.3 16.2 16.2 16.2 16.2-7.3 16.2-16.2-7.3-16.2-16.2-16.2z"/><g id="XMLID_178_"><path id="XMLID_181_" class="st0" d="M332.7 134.6s-1.7.4-1.9-2.2c-.1-.8.1-2.8-2.8-2.2-1.9.5-5-.1-5-.1-2.6-.4-2.5 1.5-2.5 2.3-.2 2.6-1.9 2.2-1.9 2.2-2-.1-3.4-2.2-3.4-2.2 1.2 6 5.1 4.8 7 3.9 1.9-.9 3.5-.8 3.5-.8s1.6-.1 3.5.8c1.8.9 5.7 2.1 7-3.9-.1 0-1.5 2.2-3.5 2.2z"/><path id="XMLID_179_" class="st0" d="M337.6 119.6c-1.2-.2-2.4-.4-3.5-.5-1.7-.1-3.4 0-5 .3-1.3.2-2.7.8-3.9.9-1.3-.1-2.6-.7-3.9-.9-1.5-.3-3.3-.3-5-.3-1.2.1-2.3.3-3.5.5-.2.9-.1 1.3.1 1.5 0 .1.1.1.1.1.1.1.3 0 .5.1.5.4.5 1.9.6 2.7.1.5.2 1.1.4 1.6.1.2.1.3.2.4.1.2.2.3.3.4s.2.2.3.2c.3.2.7.3 1.1.4.4.1.8.2 1.2.2.7.1 1.5 0 2.3-.2.5-.1.9-.3 1.3-.4.4-.2.7-.4 1-.6l.1-.1c.1-.1.2-.2.3-.4.2-.2.3-.4.5-.6.1-.1.2-.3.3-.4l.3-.6c.1-.1.1-.3.2-.4.1-.2.2-.4.2-.6.1-.2.1-.3.2-.4.1-.2.3-.5.4-.6.1-.1.3-.2.5-.3.2 0 .4.1.5.3.2.2.3.4.4.6.1.1.1.3.2.4.1.2.2.4.2.6.1.1.1.3.2.4l.3.6c.1.1.2.3.3.4.1.2.3.4.5.6.1.1.2.3.3.4l.1.1c.3.2.6.5 1 .6.4.2.9.3 1.3.4.8.2 1.6.2 2.3.2.3 0 .8-.1 1.2-.2s.8-.2 1.1-.4c.1-.1.2-.2.3-.2.1-.1.2-.2.3-.4.1-.1.1-.3.2-.4.2-.5.3-1.1.4-1.6.2-.8.1-2.3.6-2.7.1-.1.3 0 .5-.1l.1-.1c.2-.1.4-.6.1-1.5z"/></g></g><g id="XMLID_128_"><path id="XMLID_194_" class="st0" d="M375 148.2c-11.7 0-21.2-9.5-21.2-21.2s9.5-21.2 21.2-21.2 21.2 9.5 21.2 21.2-9.5 21.2-21.2 21.2zm0-37.4c-8.9 0-16.2 7.3-16.2 16.2s7.3 16.2 16.2 16.2 16.2-7.3 16.2-16.2-7.3-16.2-16.2-16.2z"/><path id="XMLID_129_" class="st0" d="M378 122.7c-2.8 0-5.1 2.3-5.1 5.1s2.3 5.1 5.1 5.1 5.1-2.3 5.1-5.1-2.3-5.1-5.1-5.1zm0 8.8c-2 0-3.7-1.6-3.7-3.7 0-2 1.6-3.7 3.7-3.7 2 0 3.7 1.6 3.7 3.7 0 2-1.7 3.7-3.7 3.7zm5.2-12.1h-16.1c-1.9 0-3.5 1.6-3.5 3.5v10c0 1.9 1.6 3.5 3.5 3.5h16.1c1.9 0 3.5-1.6 3.5-3.5v-10c0-1.9-1.6-3.5-3.5-3.5zm-11.7 3.5H367v-1.7h4.5v1.7zm6.5 11.2c-3.5 0-6.3-2.8-6.3-6.3s2.8-6.3 6.3-6.3 6.3 2.8 6.3 6.3-2.8 6.3-6.3 6.3zm.6-18.9h-6.9v3.2h6.9v-3.2z"/></g><g id="XMLID_190_"><path id="XMLID_101_" class="st0" d="M425 148.1c-11.7 0-21.2-9.5-21.2-21.2s9.5-21.2 21.2-21.2 21.2 9.5 21.2 21.2-9.5 21.2-21.2 21.2zm0-37.4c-8.9 0-16.2 7.3-16.2 16.2s7.3 16.2 16.2 16.2 16.2-7.3 16.2-16.2-7.3-16.2-16.2-16.2z"/><g id="XMLID_191_"><path id="XMLID_193_" class="st0" d="M436.9 128.1c0-4.7-2.9-8.8-7.1-10.5l-1.5 2.1c3.5 1.2 6.1 4.5 6.1 8.4 0 4.9-4 8.9-8.9 8.9s-8.9-4-8.9-8.9c0-3.9 2.6-7.3 6.1-8.4l-1.5-2.1c-4.1 1.7-7.1 5.8-7.1 10.5 0 6.3 5.1 11.4 11.4 11.4s11.4-5.1 11.4-11.4"/><path id="XMLID_192_" class="st0" d="M423.6 119.4l.8 1.2 1.1-.1 1.1.1.8-1.2 1.6-2.1 1.8-2.5-1.7-2.1h-7.2l-1.7 2.1 1.8 2.5 1.6 2.1z"/></g></g><g id="XMLID_102_" transform="translate(306 57)"><circle id="XMLID_125_" class="st0" cx="168.9" cy="120" r="18.7"/><g id="_x38__2_"><g id="XMLID_314_"><path id="XMLID_315_" class="st1" d="M175.7 110.4h-2.1V109h-1.8c-.6-.8-1.7-1.4-2.9-1.4-1.3 0-2.4.6-2.9 1.4h-1.8v1.4h-2.1c-1.5 0-2.7 1.2-2.7 2.7v13.7c0 1.5 1.2 2.7 2.7 2.7h13.7c1.5 0 2.7-1.2 2.7-2.7v-13.7c0-1.5-1.2-2.7-2.8-2.7zm-10.2 0h1.5c0-.8.9-1.4 1.9-1.4s1.9.6 1.9 1.4h1.5v2.7h-6.8v-2.7zm8.2 15h-9.6c-.4 0-.7-.3-.7-.7 0-.4.3-.7.7-.7h9.6c.4 0 .7.3.7.7 0 .4-.3.7-.7.7zm0-3.4h-9.6c-.4 0-.7-.3-.7-.7 0-.4.3-.7.7-.7h9.6c.4 0 .7.3.7.7 0 .4-.3.7-.7.7zm0-3.4h-9.6c-.4 0-.7-.3-.7-.7s.3-.7.7-.7h9.6c.4 0 .7.3.7.7s-.3.7-.7.7z"/></g></g></g><g id="XMLID_78_"><path id="XMLID_96_" class="st0" d="M475 148c-11.7 0-21.2-9.5-21.2-21.2s9.5-21.2 21.2-21.2 21.2 9.5 21.2 21.2S486.7 148 475 148zm0-37.4c-8.9 0-16.2 7.3-16.2 16.2S466.1 143 475 143s16.2-7.3 16.2-16.2-7.3-16.2-16.2-16.2z"/><g id="_x38__3_"><g id="XMLID_306_"><path id="XMLID_307_" class="st0" d="M481.8 117.2h-2.1v-1.4h-1.8c-.6-.8-1.7-1.4-2.9-1.4-1.3 0-2.4.6-2.9 1.4h-1.8v1.4h-2.1c-1.5 0-2.7 1.2-2.7 2.7v13.7c0 1.5 1.2 2.7 2.7 2.7h13.7c1.5 0 2.7-1.2 2.7-2.7v-13.7c-.1-1.5-1.3-2.7-2.8-2.7zm-10.3 0h1.5c0-.8.9-1.4 1.9-1.4 1.1 0 1.9.6 1.9 1.4h1.5v2.7h-6.8v-2.7zm8.2 15.1h-9.6c-.4 0-.7-.3-.7-.7s.3-.7.7-.7h9.6c.4 0 .7.3.7.7s-.3.7-.7.7zm0-3.5h-9.6c-.4 0-.7-.3-.7-.7s.3-.7.7-.7h9.6c.4 0 .7.3.7.7s-.3.7-.7.7zm0-3.4h-9.6c-.4 0-.7-.3-.7-.7 0-.4.3-.7.7-.7h9.6c.4 0 .7.3.7.7 0 .4-.3.7-.7.7z"/></g></g></g><g id="XMLID_53_" transform="translate(356 57)"><circle id="XMLID_63_" class="st0" cx="169" cy="120.2" r="18.7"/><g id="XMLID_54_"><g id="XMLID_55_"><path id="XMLID_56_" class="st1" d="M181 111.2c0-.1-.1-.2-.3-.2-.1 0-.2 0-.3.1-.4.6-1 .8-1.6 1-.5.2-1 .4-1.6.8-.8.6-1.2 1.4-1 2.1-.3-.5-.7-.9-1.1-1.4-1.8-1.9-4.4-3-7-3.1h-.3c-2.9 0-5.7 1.3-7.7 3.6-1.9 2.3-2.8 5.2-2.4 8.1 0 .2.1.5.1.7.7 3.2 2.6 5.6 5 6.6.6.3 1.2.4 1.8.4 1.5 0 2.8-.8 3.6-2.2.3-.5.5-1.1.6-1.6v-1c0-.3-.1-.6 0-.9.1-.7.6-1.1 1.3-1.1.2 0 .4 0 .6.1-.2.4-.5.9-.7 1.3-.4.8-.7 1.5-.8 2.1-.1.3-.3 1.2.3 1.6.2.1.4.2.7.1.2 0 .9-.2 2.8-2.4.5-.6 1.1-1.3 1.7-2 1.5-.5 2.7-1.8 3-3.2.1-.4.1-.8.1-1.2.6-.9 1.1-1.7 1.6-2.6v-.1c.7-.2 1.3-.8 1.7-1.5.5-1.1.5-2.6-.1-4.1zm-8.2 5.4c-.3.4-.7.7-1.2.7-.3 0-.5-.1-.8-.2-.3-.2-.5-.5-.6-.9-.1-.4 0-.7.2-1.1.3-.4.7-.7 1.2-.7.3 0 .5.1.8.2.3.2.5.5.6.9s0 .8-.2 1.1zm1.9 2.6c.7-1.1 1.5-2.1 2.2-3 .1.1.2.2.4.3.2.2.5.3.7.4-.6 1-1.3 2.1-2.1 3.2-1.3 1.9-2.7 3.7-3.8 5-.6.7-1.2 1.3-1.6 1.7.2-.5.5-1.3.9-2.1.8-1.7 2-3.6 3.3-5.5zm-12.6 0c-.3 0-.5-.1-.8-.2-.3-.2-.5-.5-.6-.9-.1-.4 0-.7.2-1.1.3-.4.7-.7 1.2-.7.3 0 .5.1.8.2.7.4.9 1.3.4 2-.3.4-.7.7-1.2.7zm-1.5 3.1c.3-.4.7-.7 1.2-.7.3 0 .5.1.8.2.3.2.5.5.6.9.1.4 0 .7-.2 1.1-.3.4-.7.7-1.2.7-.3 0-.5-.1-.8-.2-.3-.2-.5-.5-.6-.9-.1-.4 0-.8.2-1.1zm4.5-8.4c.3-.4.7-.7 1.2-.7.3 0 .5.1.8.2.7.4.9 1.3.4 2-.3.4-.7.7-1.2.7-.3 0-.5-.1-.8-.2-.3-.2-.5-.5-.6-.9 0-.4 0-.8.2-1.1z"/></g></g></g><g id="XMLID_42_"><path id="XMLID_157_" class="st0" d="M525 148.2c-11.7 0-21.2-9.5-21.2-21.2s9.5-21.2 21.2-21.2 21.2 9.5 21.2 21.2-9.5 21.2-21.2 21.2zm0-37.4c-8.9 0-16.2 7.3-16.2 16.2s7.3 16.2 16.2 16.2 16.2-7.3 16.2-16.2-7.3-16.2-16.2-16.2z"/><g id="XMLID_43_"><g id="XMLID_44_"><path id="XMLID_45_" class="st0" d="M537 118c0-.1-.1-.2-.3-.2-.1 0-.2 0-.3.1-.4.6-1 .8-1.6 1-.5.2-1 .4-1.6.8-.8.6-1.2 1.4-1 2.1-.3-.5-.7-.9-1.1-1.4-1.8-1.9-4.4-3-7-3.1h-.3c-2.9 0-5.7 1.3-7.7 3.6-1.9 2.3-2.8 5.2-2.4 8.1 0 .2.1.5.1.7.7 3.2 2.6 5.6 5 6.6.6.3 1.2.4 1.8.4 1.5 0 2.8-.8 3.6-2.2.3-.5.5-1.1.6-1.6v-1c0-.3-.1-.6 0-.9.1-.7.6-1.1 1.3-1.1.2 0 .4 0 .6.1-.2.4-.5.9-.7 1.3-.4.8-.7 1.5-.8 2.1-.1.3-.3 1.2.3 1.6.2.1.4.2.7.1.2 0 .9-.2 2.8-2.4.5-.6 1.1-1.3 1.7-2 1.5-.5 2.7-1.8 3-3.2.1-.4.1-.8.1-1.2.6-.9 1.1-1.7 1.6-2.6v-.1c.7-.2 1.3-.8 1.7-1.5.5-1.1.5-2.6-.1-4.1zm-8.2 5.4c-.3.4-.7.7-1.2.7-.3 0-.5-.1-.8-.2-.3-.2-.5-.5-.6-.9-.1-.4 0-.7.2-1.1.3-.4.7-.7 1.2-.7.3 0 .5.1.8.2.3.2.5.5.6.9.1.4 0 .8-.2 1.1zm1.9 2.6c.7-1.1 1.5-2.1 2.2-3 .1.1.2.2.4.3.2.2.5.3.7.4-.6 1-1.3 2.1-2.1 3.2-1.3 1.9-2.7 3.7-3.8 5-.6.7-1.2 1.3-1.6 1.7.2-.5.5-1.3.9-2.1.8-1.7 2-3.6 3.3-5.5zm-12.6 0c-.3 0-.5-.1-.8-.2-.3-.2-.5-.5-.6-.9-.1-.4 0-.7.2-1.1.3-.4.7-.7 1.2-.7.3 0 .5.1.8.2.7.4.9 1.3.4 2-.3.4-.7.7-1.2.7zm-1.5 3.1c.3-.4.7-.7 1.2-.7.3 0 .5.1.8.2.3.2.5.5.6.9.1.4 0 .7-.2 1.1-.3.4-.7.7-1.2.7-.3 0-.5-.1-.8-.2-.3-.2-.5-.5-.6-.9-.1-.4 0-.8.2-1.1zm4.5-8.4c.3-.4.7-.7 1.2-.7.3 0 .5.1.8.2.7.4.9 1.3.4 2-.3.4-.7.7-1.2.7-.3 0-.5-.1-.8-.2-.3-.2-.5-.5-.6-.9 0-.4 0-.8.2-1.1z"/></g></g></g><g id="XMLID_213_" transform="translate(405 57)"><circle id="XMLID_226_" class="st0" cx="169.5" cy="120.2" r="18.7"/><g id="XMLID_214_"><path id="XMLID_225_" class="st1" d="M171.7 128.3h-4.1c-.3 0-.5.2-.5.5s.2.5.5.5h4.1c.3 0 .5-.2.5-.5.1-.2-.2-.5-.5-.5z"/><path id="XMLID_224_" class="st1" d="M171.7 126.6h-4.1c-.3 0-.5.2-.5.5s.2.5.5.5h4.1c.3 0 .5-.2.5-.5.1-.2-.2-.5-.5-.5z"/><path id="XMLID_223_" class="st1" d="M169.7 130.5l1.8-.6h-3.6l1.8.6z"/><path id="XMLID_222_" class="st1" d="M169.7 113.2c-3.1 0-5.8 2.5-5.8 5.5s2.6 4.8 2.8 5.7c.3.9 0 1.4.7 1.6.7.2 2.2.2 2.2.2h.1s1.6 0 2.2-.2c.7-.2.4-.7.7-1.6.3-.9 2.8-2.7 2.8-5.7.1-3-2.6-5.5-5.7-5.5z"/><path id="XMLID_221_" class="st1" d="M162.1 119.7c0-.4-.4-.8-1-.8h-3c-.5 0-.9.3-.9.8 0 .4.4.8.9.8h3c.6 0 1-.4 1-.8z"/><path id="XMLID_220_" class="st1" d="M181.2 118.9h-3c-.5 0-.9.3-.9.8 0 .4.4.8.9.8h3c.5 0 .9-.3.9-.8 0-.4-.4-.8-.9-.8z"/><path id="XMLID_219_" class="st1" d="M176.3 114.1l2.1-2.1c.4-.4.4-.9.1-1.2-.3-.3-.9-.2-1.2.1l-2.1 2.1c-.4.4-.4.9-.1 1.2.3.3.8.2 1.2-.1z"/><path id="XMLID_218_" class="st1" d="M169.6 111.7c.4 0 .8-.4.8-1v-3c0-.5-.3-.9-.8-.9-.4 0-.8.4-.8.9v3c0 .6.4 1 .8 1z"/><path id="XMLID_217_" class="st1" d="M162.8 113.8c.4.4.9.4 1.2.1.3-.3.2-.8-.1-1.2l-2.1-2.1c-.4-.4-.9-.4-1.2-.1-.3.3-.2.9.1 1.2l2.1 2.1z"/><path id="XMLID_216_" class="st1" d="M163.1 125.3l-2.1 2.1c-.4.4-.4.9-.1 1.2.3.3.8.2 1.2-.1l2.1-2.1c.4-.4.4-.9.1-1.2-.3-.3-.9-.3-1.2.1z"/><path id="XMLID_215_" class="st1" d="M176.5 125.6c-.4-.4-.9-.4-1.2-.1s-.2.9.1 1.2l2.1 2.1c.4.4.9.4 1.2.1.3-.3.2-.9-.1-1.2l-2.1-2.1z"/></g></g><g id="XMLID_64_"><path id="XMLID_150_" class="st0" d="M574.7 148.5c-11.7 0-21.2-9.5-21.2-21.2s9.5-21.2 21.2-21.2 21.2 9.5 21.2 21.2-9.5 21.2-21.2 21.2zm0-37.4c-8.9 0-16.2 7.3-16.2 16.2s7.3 16.2 16.2 16.2c8.9 0 16.2-7.3 16.2-16.2 0-9-7.3-16.2-16.2-16.2z"/><g id="XMLID_65_"><path id="XMLID_156_" class="st0" d="M576.9 135.4h-4.1c-.3 0-.5.2-.5.5s.2.5.5.5h4.1c.3 0 .5-.2.5-.5.1-.3-.2-.5-.5-.5z"/><path id="XMLID_155_" class="st0" d="M576.9 133.7h-4.1c-.3 0-.5.2-.5.5s.2.5.5.5h4.1c.3 0 .5-.2.5-.5.1-.3-.2-.5-.5-.5z"/><path id="XMLID_154_" class="st0" d="M574.9 137.6l1.7-.7h-3.5l1.8.7z"/><path id="XMLID_153_" class="st0" d="M574.9 120.3c-3.1 0-5.8 2.5-5.8 5.5s2.6 4.8 2.8 5.7c.3.9 0 1.4.7 1.6.7.2 2.2.2 2.2.2h.1s1.6 0 2.2-.2c.7-.2.4-.7.7-1.6s2.8-2.7 2.8-5.7c.1-3.1-2.7-5.5-5.7-5.5z"/><path id="XMLID_152_" class="st0" d="M567.3 126.7c0-.4-.4-.8-1-.8h-3c-.5 0-.9.3-.9.8 0 .4.4.8.9.8h3c.6 0 1-.3 1-.8z"/><path id="XMLID_151_" class="st0" d="M586.3 126h-3c-.5 0-.9.3-.9.8 0 .4.4.8.9.8h3c.5 0 .9-.3.9-.8.1-.5-.3-.8-.9-.8z"/><path id="XMLID_70_" class="st0" d="M581.5 121.1l2.1-2.1c.4-.4.4-.9.1-1.2-.3-.3-.9-.2-1.2.1l-2.1 2.1c-.4.4-.4.9-.1 1.2.2.3.8.3 1.2-.1z"/><path id="XMLID_69_" class="st0" d="M574.8 118.8c.4 0 .8-.4.8-1v-3c0-.5-.3-.9-.8-.9-.4 0-.8.4-.8.9v3c0 .6.4 1 .8 1z"/><path id="XMLID_68_" class="st0" d="M568 120.8c.4.4.9.4 1.2.1.3-.3.2-.8-.1-1.2l-2.1-2.1c-.4-.4-.9-.4-1.2-.1s-.2.9.1 1.2l2.1 2.1z"/><path id="XMLID_67_" class="st0" d="M568.2 132.3l-2.1 2.1c-.4.4-.4.9-.1 1.2.3.3.8.2 1.2-.1l2.1-2.1c.4-.4.4-.9.1-1.2-.2-.3-.8-.2-1.2.1z"/><path id="XMLID_66_" class="st0" d="M581.7 132.6c-.4-.4-.9-.4-1.2-.1s-.2.9.1 1.2l2.1 2.1c.4.4.9.4 1.2.1.3-.3.2-.9-.1-1.2l-2.1-2.1z"/></g></g><g id="XMLID_227_" transform="translate(456 57)"><circle id="XMLID_246_" class="st0" cx="169" cy="120" r="18.7"/><g id="XMLID_228_"><path id="XMLID_230_" class="st1" d="M170.6 108.6c-2.2 0-4.1 1.8-4.1 4.1 0 2.2 1.8 4.1 4.1 4.1 2.2 0 4.1-1.8 4.1-4.1-.1-2.3-1.9-4.1-4.1-4.1zm-2.5 5.1c-.5 0-1-.4-1-1s.4-1 1-1c.5 0 1 .4 1 1 0 .5-.5 1-1 1zm2.5 2.5c-.5 0-1-.4-1-1s.4-1 1-1 1 .4 1 1c0 .5-.5 1-1 1zm0-5c-.5 0-1-.4-1-1s.4-1 1-1 1 .4 1 1c0 .5-.5 1-1 1zm2.5 2.5c-.6 0-1-.4-1-1s.4-1 1-1 1 .4 1 1c0 .5-.5 1-1 1zm-11.2 3c2.2 0 4.1-1.8 4.1-4.1 0-2.2-1.8-4.1-4.1-4.1-2.2 0-4.1 1.8-4.1 4.1s1.9 4.1 4.1 4.1zm2.5-5c.5 0 1 .4 1 1s-.4 1-1 1c-.5 0-1-.4-1-1s.5-1 1-1zm-2.5-2.5c.6 0 1 .4 1 1 0 .5-.4 1-1 1s-1-.4-1-1 .5-1 1-1zm0 5c.6 0 1 .4 1 1s-.4 1-1 1-1-.4-1-1 .5-1 1-1zm-3.5-1.5c0-.6.4-1 1-1 .5 0 1 .4 1 1s-.4 1-1 1c-.5 0-1-.5-1-1zm20.5 5.1v10.3h1.3v-10.3h-1.3zm-9.2-.2h-7.3c-1.9 0-3.4 1.5-3.4 3.4v4.1c0 1.9 1.5 3.4 3.4 3.4h7.3c1.9 0 3.4-1.5 3.4-3.4V121c0-1.9-1.6-3.4-3.4-3.4z"/><path id="XMLID_229_" class="st1" d="M174.1 125.2l4 2.7v-9.8l-4 2.7v4.4z"/></g></g><g id="XMLID_158_"><path id="XMLID_123_" class="st0" d="M625 148.2c-11.7 0-21.2-9.5-21.2-21.2s9.5-21.2 21.2-21.2 21.2 9.5 21.2 21.2-9.5 21.2-21.2 21.2zm0-37.4c-8.9 0-16.2 7.3-16.2 16.2s7.3 16.2 16.2 16.2 16.2-7.3 16.2-16.2-7.3-16.2-16.2-16.2z"/><g id="XMLID_159_"><path id="XMLID_161_" class="st0" d="M626.6 115.6c-2.2 0-4.1 1.8-4.1 4.1 0 2.2 1.8 4.1 4.1 4.1 2.2 0 4.1-1.8 4.1-4.1-.1-2.2-1.9-4.1-4.1-4.1zm-2.5 5.1c-.5 0-1-.4-1-1s.4-1 1-1c.5 0 1 .4 1 1s-.5 1-1 1zm2.5 2.5c-.5 0-1-.4-1-1s.4-1 1-1 1 .4 1 1-.5 1-1 1zm0-5c-.5 0-1-.4-1-1s.4-1 1-1 1 .4 1 1-.5 1-1 1zm2.5 2.5c-.6 0-1-.4-1-1s.4-1 1-1 1 .4 1 1-.5 1-1 1zm-11.2 3.1c2.2 0 4.1-1.8 4.1-4.1 0-2.2-1.8-4.1-4.1-4.1-2.2 0-4.1 1.8-4.1 4.1s1.9 4.1 4.1 4.1zm2.5-5.1c.5 0 1 .4 1 1s-.4 1-1 1c-.5 0-1-.4-1-1 0-.5.5-1 1-1zm-2.5-2.5c.6 0 1 .4 1 1 0 .5-.4 1-1 1s-1-.4-1-1c0-.5.5-1 1-1zm0 5c.6 0 1 .4 1 1s-.4 1-1 1-1-.4-1-1c0-.5.5-1 1-1zm-3.5-1.5c0-.6.4-1 1-1 .5 0 1 .4 1 1s-.4 1-1 1c-.5 0-1-.4-1-1zm20.5 5.2v10.3h1.3v-10.3h-1.3zm-9.2-.3h-7.3c-1.9 0-3.4 1.5-3.4 3.4v4.1c0 1.9 1.5 3.4 3.4 3.4h7.3c1.9 0 3.4-1.5 3.4-3.4V128c0-1.9-1.6-3.4-3.4-3.4z"/><path id="XMLID_160_" class="st0" d="M630.1 132.3l4 2.7v-9.9l-4 2.7v4.5z"/></g></g><g id="XMLID_109_" transform="translate(506 57)"><circle id="XMLID_277_" class="st0" cx="169" cy="120.2" r="18.7"/><g id="XMLID_266_"><g id="Layer_5_5_"><g id="XMLID_267_"><g id="XMLID_275_"><path id="XMLID_276_" class="st1" d="M161.4 116.5c-.2 0-.3-.1-.4-.2-.2-.2-.1-.6.1-.7l2.9-2.1c.2-.2.6-.1.7.1.2.2.1.6-.1.7l-2.9 2.1c-.1.1-.2.1-.3.1z"/></g><g id="XMLID_273_"><path id="XMLID_274_" class="st1" d="M161.6 119.3c-.2 0-.3-.1-.4-.2-.2-.2-.1-.6.1-.7l6.1-4.3c.2-.2.6-.1.7.1.2.2.1.6-.1.7l-6.1 4.3s-.1.1-.3.1z"/></g><path id="XMLID_268_" class="st1" d="M178.6 110.5h-19.3c-.5 0-.9.4-.9.9V126.3c0 .5.4.9.9.9h7.1s.3 0 .3.2v1.3c0 .1 0 .2-.2.2h-1.8c-.4 0-.7.3-.7.7s.3.7.7.7h8.7c.4 0 .7-.3.7-.7s-.3-.7-.7-.7h-1.9c-.1 0-.1-.1-.1-.1v-1.4c0-.2.2-.2.2-.2h7.1c.5 0 .9-.4.9-.9v-14.9c-.2-.5-.6-.9-1-.9zm-8.8 16.9v1.3c0 .1 0 .2-.1.2h-1.5c-.1 0-.1-.1-.1-.2v-1.3c0-.2.2-.2.2-.2h1.4c-.1 0 .1 0 .1.2zm-.9-1.2c-.5 0-.9-.4-.9-.9s.4-.9.9-.9.9.4.9.9-.4.9-.9.9zm9.3-3.3c0 .5-.4.9-.9.9h-16.8c-.5 0-.9-.4-.9-.9v-10.1c0-.5.4-.9.9-.9h16.8c.5 0 .9.4.9.9v10.1z"/></g></g></g></g><g id="XMLID_73_"><path id="XMLID_145_" class="st0" d="M675 148.2c-11.7 0-21.2-9.5-21.2-21.2s9.5-21.2 21.2-21.2 21.2 9.5 21.2 21.2-9.5 21.2-21.2 21.2zm0-37.4c-8.9 0-16.2 7.3-16.2 16.2s7.3 16.2 16.2 16.2 16.2-7.3 16.2-16.2-7.3-16.2-16.2-16.2z"/><g id="XMLID_74_"><g id="Layer_5_2_"><g id="XMLID_75_"><g id="XMLID_85_"><path id="XMLID_95_" class="st0" d="M667.4 123.4c-.2 0-.3-.1-.4-.2-.2-.2-.1-.6.1-.7l2.9-2.1c.2-.2.6-.1.7.1.2.2.1.6-.1.7l-2.9 2.1c-.1 0-.2.1-.3.1z"/></g><g id="XMLID_83_"><path id="XMLID_84_" class="st0" d="M667.6 126.1c-.2 0-.3-.1-.4-.2-.2-.2-.1-.6.1-.7l6.1-4.3c.2-.2.6-.1.7.1.2.2.1.6-.1.7l-6.1 4.3c0 .1-.1.1-.3.1z"/></g><path id="XMLID_76_" class="st0" d="M684.6 117.4h-19.3c-.5 0-.9.4-.9.9V133.2c0 .5.4.9.9.9h7.1s.3 0 .3.2v1.3c0 .1 0 .2-.2.2h-1.8c-.4 0-.7.3-.7.7s.3.7.7.7h8.7c.4 0 .7-.3.7-.7s-.3-.7-.7-.7h-1.9c-.1 0-.1-.1-.1-.1v-1.4c0-.2.2-.2.2-.2h7.1c.5 0 .9-.4.9-.9v-15c-.2-.4-.6-.8-1-.8zm-8.8 16.8v1.3c0 .1 0 .2-.1.2h-1.5c-.1 0-.1-.1-.1-.2v-1.3c0-.2.2-.2.2-.2h1.4c-.1 0 .1 0 .1.2zm-.9-1.2c-.5 0-.9-.4-.9-.9s.4-.9.9-.9.9.4.9.9c0 .6-.4.9-.9.9zm9.3-3.3c0 .5-.4.9-.9.9h-16.8c-.5 0-.9-.4-.9-.9v-10c0-.5.4-.9.9-.9h16.8c.5 0 .9.4.9.9v10z"/></g></g></g></g><g id="bartending-2"><path id="Fill-3" class="st2" d="M742.2 177.2c0 9.6-7.8 17.4-17.3 17.4-9.6 0-17.4-7.8-17.4-17.4s7.8-17.3 17.4-17.3c9.5-.1 17.3 7.7 17.3 17.3"/><path id="Fill-4" class="st1" d="M725.9 188.2v-11.3h.5l6.1-9.1h-2.7l1.1-2h.2c.6 0 1.1-.5 1.1-1.1 0-.6-.5-1.1-1.1-1.1-.6 0-1.1.5-1.1 1.1 0 .3.2.6.4.8l-1.2 2.2H717l6.1 9.1h.5v11.3c-2 .1-3.5.3-3.5.5 0 .3 2 .5 4.6.5 2.5 0 4.6-.2 4.6-.5.1-.2-1.4-.4-3.4-.4zm3.4-19.4h1.3l-1.2 1.7h-1.1l1-1.7zm-9.1 1.8l-1.2-1.8h9.7l-1 1.7-7.5.1z"/></g><g id="bartending-1"><path id="Stroke-1" class="st3" d="M742.2 127c0 9.6-7.8 17.3-17.3 17.3s-17.4-7.8-17.4-17.3 7.8-17.3 17.4-17.3 17.3 7.7 17.3 17.3z"/><path id="Fill-2" class="st2" d="M725.9 138v-11.3h.5l6.1-9.1h-2.7l1.1-2h.2c.6 0 1.1-.5 1.1-1.1 0-.6-.5-1.1-1.1-1.1-.6 0-1.1.5-1.1 1.1 0 .3.2.6.4.8l-1.2 2.2H717l6.1 9.1h.5V138c-2 .1-3.5.3-3.5.5 0 .3 2 .5 4.6.5 2.5 0 4.6-.2 4.6-.5.1-.2-1.4-.4-3.4-.5zm3.4-19.4h1.3l-1.2 1.7h-1.1l1-1.7zm-9.1 1.8l-1.2-1.8h9.7l-1 1.8h-7.5z"/></g></g></g></svg>