<?xml version="1.0" encoding="UTF-8" standalone="no"?>
<svg width="150px" height="50px" viewBox="0 0 150 50" version="1.1" xmlns="http://www.w3.org/2000/svg" xmlns:xlink="http://www.w3.org/1999/xlink" xmlns:sketch="http://www.bohemiancoding.com/sketch/ns">
    <!-- Generator: Sketch 3.3.2 (12043) - http://www.bohemiancoding.com/sketch -->
    <title>social-sprite</title>
    <desc>Created with Sketch.</desc>
    <defs></defs>
    <g id="Icons" stroke="none" stroke-width="1" fill="none" fill-rule="evenodd" sketch:type="MSPage">
        <g id="social-sprite" sketch:type="MSArtboardGroup" fill="#FFFFFF">
            <g sketch:type="MSLayerGroup" transform="translate(15.000000, 11.000000)">
                <g id="twitter-icon" transform="translate(97.000000, 4.000000)" sketch:type="MSShapeGroup">
                    <path d="M25.3125,2.375 C24.6145798,3.39583844 23.7708383,4.26562141 22.78125,4.984375 C22.7916667,5.13020906 22.796875,5.34895687 22.796875,5.640625 C22.796875,6.99479844 22.5989603,8.34634742 22.203125,9.6953125 C21.8072897,11.0442776 21.2057332,12.3385355 20.3984375,13.578125 C19.5911418,14.8177145 18.6302139,15.9140577 17.515625,16.8671875 C16.4010361,17.8203173 15.0572995,18.5807263 13.484375,19.1484375 C11.9114505,19.7161487 10.2291756,20 8.4375,20 C5.61456922,20 3.03126172,19.2447992 0.6875,17.734375 C1.05208516,17.7760419 1.45833109,17.796875 1.90625,17.796875 C4.25001172,17.796875 6.3385325,17.0781322 8.171875,15.640625 C7.07811953,15.6197916 6.09896266,15.2838574 5.234375,14.6328125 C4.36978734,13.9817676 3.77604328,13.1510467 3.453125,12.140625 C3.79687672,12.1927086 4.11458188,12.21875 4.40625,12.21875 C4.85416891,12.21875 5.29687281,12.1614589 5.734375,12.046875 C4.5677025,11.8072905 3.60156633,11.2265671 2.8359375,10.3046875 C2.07030867,9.38280789 1.6875,8.31250609 1.6875,7.09375 L1.6875,7.03125 C2.39583687,7.42708531 3.15624594,7.64062484 3.96875,7.671875 C3.28124656,7.21353937 2.73437703,6.61458703 2.328125,5.875 C1.92187297,5.13541297 1.71875,4.33333766 1.71875,3.46875 C1.71875,2.55207875 1.94791437,1.70312891 2.40625,0.921875 C3.66667297,2.47396609 5.2005118,3.71614117 7.0078125,4.6484375 C8.8151132,5.58073383 10.7499897,6.09895781 12.8125,6.203125 C12.7291662,5.80728969 12.6875,5.42187687 12.6875,5.046875 C12.6875,3.65103469 13.1796826,2.46094242 14.1640625,1.4765625 C15.1484424,0.492182578 16.3385347,0 17.734375,0 C19.1927156,0 20.42187,0.531244688 21.421875,1.59375 C22.5572973,1.37499891 23.624995,0.968752969 24.625,0.375 C24.2395814,1.57292266 23.5000055,2.49999672 22.40625,3.15625 C23.3750048,3.05208281 24.3437452,2.79166875 25.3125,2.375 L25.3125,2.375 Z"></path>
                </g>
                <g id="instagram-icon" transform="translate(46.000000, 2.000000)" sketch:type="MSShapeGroup">
                    <path d="M21.28125,20.28125 L21.28125,10.15625 L19.171875,10.15625 C19.3802094,10.8125033 19.484375,11.4947881 19.484375,12.203125 C19.484375,13.5156316 19.151045,14.726557 18.484375,15.8359375 C17.817705,16.945318 16.9114641,17.8229134 15.765625,18.46875 C14.6197859,19.1145866 13.3697984,19.4375 12.015625,19.4375 C9.96353141,19.4375 8.20834062,18.7317779 6.75,17.3203125 C5.29165938,15.9088471 4.5625,14.203135 4.5625,12.203125 C4.5625,11.4947881 4.66666562,10.8125033 4.875,10.15625 L2.671875,10.15625 L2.671875,20.28125 C2.671875,20.5520847 2.76301992,20.7786449 2.9453125,20.9609375 C3.12760508,21.1432301 3.35416531,21.234375 3.625,21.234375 L20.328125,21.234375 C20.588543,21.234375 20.8124991,21.1432301 21,20.9609375 C21.1875009,20.7786449 21.28125,20.5520847 21.28125,20.28125 L21.28125,20.28125 Z M16.84375,11.953125 C16.84375,10.6614519 16.3724005,9.55990039 15.4296875,8.6484375 C14.4869745,7.73697461 13.348965,7.28125 12.015625,7.28125 C10.6927017,7.28125 9.55990055,7.73697461 8.6171875,8.6484375 C7.67447445,9.55990039 7.203125,10.6614519 7.203125,11.953125 C7.203125,13.2447981 7.67447445,14.3463496 8.6171875,15.2578125 C9.55990055,16.1692754 10.6927017,16.625 12.015625,16.625 C13.348965,16.625 14.4869745,16.1692754 15.4296875,15.2578125 C16.3724005,14.3463496 16.84375,13.2447981 16.84375,11.953125 L16.84375,11.953125 Z M21.28125,6.328125 L21.28125,3.75 C21.28125,3.45833187 21.1770844,3.20573023 20.96875,2.9921875 C20.7604156,2.77864477 20.5052098,2.671875 20.203125,2.671875 L17.484375,2.671875 C17.1822902,2.671875 16.9270844,2.77864477 16.71875,2.9921875 C16.5104156,3.20573023 16.40625,3.45833187 16.40625,3.75 L16.40625,6.328125 C16.40625,6.63020984 16.5104156,6.88541562 16.71875,7.09375 C16.9270844,7.30208438 17.1822902,7.40625 17.484375,7.40625 L20.203125,7.40625 C20.5052098,7.40625 20.7604156,7.30208438 20.96875,7.09375 C21.1770844,6.88541562 21.28125,6.63020984 21.28125,6.328125 L21.28125,6.328125 Z M24,3.078125 L24,20.921875 C24,21.7656292 23.6979197,22.4895803 23.09375,23.09375 C22.4895803,23.6979197 21.7656292,24 20.921875,24 L3.078125,24 C2.23437078,24 1.51041969,23.6979197 0.90625,23.09375 C0.302080313,22.4895803 0,21.7656292 0,20.921875 L0,3.078125 C0,2.23437078 0.302080313,1.51041969 0.90625,0.90625 C1.51041969,0.302080313 2.23437078,0 3.078125,0 L20.921875,0 C21.7656292,0 22.4895803,0.302080313 23.09375,0.90625 C23.6979197,1.51041969 24,2.23437078 24,3.078125 L24,3.078125 Z" id="instagrame-icon"></path>
                </g>
                <g id="facebook-icon" sketch:type="MSShapeGroup">
                    <path d="M14.2421875,1.1875 L14.2421875,5.3125 L11.7890625,5.3125 C10.8932247,5.3125 10.2890641,5.49999813 9.9765625,5.875 C9.66406094,6.25000187 9.5078125,6.81249625 9.5078125,7.5625 L9.5078125,10.515625 L14.0859375,10.515625 L13.4765625,15.140625 L9.5078125,15.140625 L9.5078125,27 L4.7265625,27 L4.7265625,15.140625 L0.7421875,15.140625 L0.7421875,10.515625 L4.7265625,10.515625 L4.7265625,7.109375 C4.7265625,5.17186531 5.26822375,3.66927617 6.3515625,2.6015625 C7.43490125,1.53384883 8.87759516,1 10.6796875,1 C12.2109452,1 13.3984333,1.06249938 14.2421875,1.1875 L14.2421875,1.1875 Z"></path>
                </g>
            </g>
        </g>
    </g>
</svg>