<svg width="186" height="181" viewBox="0 0 186 181" xmlns="http://www.w3.org/2000/svg"><title>b-d_white</title><g fill="#FFF" fill-rule="evenodd"><path d="M166.804 52.434h18.7v-24.63H141.746V81.73c-6.545-4.105-14.025-6.904-22.066-7.837-2.244-.187-4.488-.373-6.732-.373-7.667 0-14.96 1.68-21.505 4.478-18.326 7.837-31.23 25.75-32.164 46.65 3.926 2.052 8.414 3.172 13.09 3.172 4.3 0 8.227-.933 11.967-2.613.56-10.822 7.293-19.966 16.643-24.258 3.553-1.68 7.667-2.613 11.968-2.613 4.675 0 9.163 1.12 13.09 3.172 9.163 4.664 15.52 14.367 15.52 25.377 0 15.86-12.902 28.55-28.61 28.55-7.293 0-13.838-2.8-18.887-7.092-6.544 2.986-13.837 4.48-21.504 4.48-2.244 0-4.488-.188-6.732-.374 9.163 16.794 26.928 28.177 47.31 28.177 29.734 0 53.857-24.07 53.857-53.74V52.434h-.186z" id="Shape"/><path d="M113.135 105.988c-5.984 0-11.22 2.425-15.147 6.53-2.992 5.598-7.667 10.263-13.464 12.876-3.553 1.68-7.667 2.612-11.968 2.612-4.675 0-9.163-1.12-13.09-3.172-9.163-4.665-15.52-14.368-15.52-25.377 0-15.86 12.902-28.55 28.61-28.55 4.114 0 7.854.933 11.407 2.426 8.602-4.665 18.7-7.464 29.172-7.464h1.31c-9.912-12.316-25.06-20.154-41.89-20.154-10.658 0-20.382 2.986-28.797 8.397V0H0v24.63h18.7v74.64c0 27.43 20.57 50.008 46.937 53.367 2.244.187 4.488.373 6.732.373 7.666 0 14.96-1.68 21.504-4.478 15.895-6.904 27.676-21.272 31.042-38.626-3.18-2.426-7.293-3.918-11.78-3.918z"/></g></svg>