<svg id="Layer_1" xmlns="http://www.w3.org/2000/svg" viewBox="0 0 234.8 69"><style>.st0{fill:#FFA400;} .st1{fill:#C1B8AF;} .st2{fill:#3BB0C9;} .st3{fill:none;stroke:#C1B8AF;stroke-width:1.0431;stroke-miterlimit:10;}</style><g id="XMLID_1_"><g id="XMLID_2_"><g id="XMLID_227_"><path id="XMLID_255_" class="st0" d="M81.2 38.3v-13h-2.1v-2.2h5.8c1.6 0 2.8.1 3.6.3.8.2 1.5.7 2.1 1.4.6.8.9 1.7.9 2.7 0 .8-.2 1.5-.5 2.2-.4.6-.9 1.1-1.6 1.5 1 .3 1.7.9 2.2 1.6.5.8.8 1.6.8 2.6 0 .9-.2 1.6-.6 2.3-.4.7-.9 1.2-1.5 1.6-.6.4-1.3.6-2.1.8-.8.1-1.8.2-3.1.2h-5.9v-2.2h2zm2.6-7.9h1.6c1.2 0 2.1-.2 2.6-.7.5-.4.7-1.1.7-1.9 0-1.6-1.1-2.5-3.3-2.5h-1.6v5.1zm0 7.9h1c1.3 0 2.2-.1 2.8-.2.6-.1 1.1-.4 1.5-.9.4-.5.6-1.1.6-1.8s-.2-1.3-.5-1.7c-.4-.5-.8-.8-1.4-.9-.6-.2-1.4-.2-2.4-.2h-1.5v5.7z"/><path id="XMLID_252_" class="st0" d="M107 35.1H96.9c.1 1.1.6 2 1.3 2.7.7.7 1.7 1 2.8 1 1.7 0 3-.7 3.9-2l2.1.9c-.7 1.1-1.6 1.8-2.7 2.3-1.1.5-2.2.8-3.4.8-1.8 0-3.4-.6-4.7-1.7-1.3-1.1-2-2.7-2-4.6 0-1.8.6-3.4 1.9-4.6 1.3-1.2 2.7-1.8 4.4-1.8 1.6 0 3.1.6 4.4 1.7 1.4 1.2 2.1 3 2.1 5.3zm-2.4-1.7c-.2-.8-.6-1.6-1.3-2.3-.7-.7-1.6-1-2.6-1-.9 0-1.8.3-2.4.9-.7.6-1.1 1.4-1.2 2.4h7.5z"/><path id="XMLID_249_" class="st0" d="M121.2 38.4v2.1h-4.1V39c-1.1 1.1-2.4 1.7-3.8 1.7-1.1 0-2-.4-2.9-1.1s-1.2-1.6-1.2-2.7.4-2 1.3-2.8c.9-.7 1.9-1.1 3.1-1.1 1.1 0 2.2.3 3.3 1v-1.2c0-.6-.1-1.1-.2-1.4-.1-.3-.4-.6-.8-.9-.4-.3-1-.4-1.7-.4-1.2 0-2 .5-2.6 1.4l-2.3-.6c1-1.9 2.7-2.8 5.2-2.8.9 0 1.7.1 2.3.4s1.2.6 1.5.9c.3.4.5.8.7 1.3.1.4.2 1.2.2 2.1v5.6h2zm-4.4-2.4c-1-.8-2.1-1.2-3.1-1.2-.7 0-1.2.2-1.6.6s-.7.9-.7 1.5.2 1 .6 1.4c.4.4.9.6 1.6.6 1.1 0 2.2-.5 3.2-1.4V36z"/><path id="XMLID_247_" class="st0" d="M122.3 30.6v-2.1h1.6v-1.9l2.4-2.2v4h2.2v2.1h-2.2v5.8c0 .9.1 1.5.2 1.7.1.2.4.3.8.3s.9-.1 1.3-.2v2.2c-.6.2-1.2.3-1.8.3-.7 0-1.3-.2-1.8-.5-.4-.3-.7-.7-.8-1.2-.1-.5-.2-1.3-.2-2.5v-6h-1.7z"/><path id="XMLID_245_" class="st0" d="M130.2 40.5v-4.1h2.1v.4c.1.6.4 1 .9 1.4.5.4 1.2.5 1.9.5.8 0 1.4-.1 1.8-.4.5-.3.7-.6.7-1.1 0-.5-.2-.8-.6-1-.4-.2-1.1-.4-2.2-.6-1.7-.3-2.8-.7-3.6-1.4-.7-.6-1.1-1.4-1.1-2.4s.4-1.8 1.2-2.5c.8-.7 1.8-1 3-1 1.1 0 2.1.2 2.9.7v-.5h2.1v4h-2.1v-.7c-.6-1-1.6-1.5-2.8-1.5-.6 0-1.1.1-1.5.4-.4.3-.6.6-.6 1.1 0 .5.2.8.6.9.4.2 1.2.4 2.4.5 1.2.2 2.1.4 2.6.6.6.2 1.1.7 1.5 1.2.4.6.6 1.2.6 2 0 1.1-.4 2-1.3 2.7-.9.7-2 1-3.3 1-1.3 0-2.3-.3-3.1-.9v.7h-2.1z"/><path id="XMLID_241_" class="st1" d="M158.6 31.3h3.5v2.1h-1.8c-.4 1.6-1 2.8-1.7 3.7l.9 1.2h2.6v2.2h-3.9L157 39c-1.5 1.2-3 1.8-4.6 1.8-1.8 0-3.3-.6-4.4-1.7s-1.8-2.5-1.8-4.2c0-2.3 1.3-4 3.9-5.2-.8-1-1.2-2-1.2-3 0-1.1.4-2 1.3-2.7.8-.7 1.8-1.1 2.9-1.1 1.2 0 2.1.4 2.9 1.1.8.7 1.2 1.6 1.2 2.6 0 .9-.3 1.7-.8 2.3-.6.6-1.5 1.1-2.8 1.7l3.5 4.8c.7-1.2 1.2-2.5 1.5-4.1zm-7.1 0c-1.8.8-2.7 2-2.7 3.5 0 1 .4 1.9 1.1 2.7.8.8 1.7 1.1 2.7 1.1 1.1 0 2.1-.5 3-1.4l-4.1-5.9zm.9-2.4c1-.4 1.7-.8 2-1.2.4-.4.5-.8.5-1.2 0-.4-.2-.8-.5-1.1-.3-.3-.8-.5-1.3-.5s-1 .2-1.3.5c-.3.3-.5.7-.5 1.2 0 .4.3 1.1.9 2l.2.3z"/><path id="XMLID_238_" class="st2" d="M169.9 38.3v-13h-2.4v-2.2h6.7c1.8 0 3.3.1 4.3.3 1 .2 2 .6 2.9 1.3.9.7 1.7 1.6 2.2 2.8.6 1.2.8 2.5.8 4 0 1.7-.3 3.2-.8 4.5-.5 1.3-1.2 2.2-2.1 2.8-.9.6-1.9 1.1-3.1 1.3-1.2.2-2.7.4-4.6.4h-6.3v-2.2h2.4zm2.6 0h1.4c1.5 0 2.7-.1 3.6-.3.9-.2 1.6-.5 2.3-1 .6-.5 1.1-1.2 1.5-2.1.4-.9.6-2 .6-3.3 0-1.5-.3-2.8-.9-3.8-.6-1-1.4-1.7-2.4-2-1-.3-2.5-.5-4.5-.5h-1.5v13z"/><path id="XMLID_235_" class="st2" d="M199.5 35.1h-10.1c.1 1.1.6 2 1.3 2.7.7.7 1.7 1 2.8 1 1.7 0 3-.7 3.9-2l2.1.9c-.7 1.1-1.6 1.8-2.7 2.3s-2.2.8-3.4.8c-1.8 0-3.4-.6-4.7-1.7-1.3-1.1-2-2.7-2-4.6 0-1.8.6-3.4 1.9-4.6 1.3-1.2 2.7-1.8 4.4-1.8 1.6 0 3.1.6 4.4 1.7 1.3 1.2 2 3 2.1 5.3zm-2.5-1.7c-.2-.8-.6-1.6-1.3-2.3-.7-.7-1.6-1-2.6-1-.9 0-1.8.3-2.4.9-.7.6-1.1 1.4-1.2 2.4h7.5z"/><path id="XMLID_232_" class="st2" d="M214.1 35.1H204c.1 1.1.6 2 1.3 2.7.7.7 1.7 1 2.8 1 1.7 0 3-.7 3.9-2l2.1.9c-.7 1.1-1.6 1.8-2.7 2.3s-2.2.8-3.4.8c-1.8 0-3.4-.6-4.7-1.7-1.3-1.1-2-2.7-2-4.6 0-1.8.6-3.4 1.9-4.6 1.3-1.2 2.7-1.8 4.4-1.8 1.6 0 3.1.6 4.4 1.7 1.3 1.2 2 3 2.1 5.3zm-2.5-1.7c-.2-.8-.6-1.6-1.3-2.3-.7-.7-1.6-1-2.6-1-.9 0-1.8.3-2.4.9-.7.6-1.1 1.4-1.2 2.4h7.5z"/><path id="XMLID_230_" class="st2" d="M215.8 30.6v-2.1h1.6v-1.9l2.4-2.2v4h2.2v2.1h-2.2v5.8c0 .9.1 1.5.2 1.7.1.2.4.3.8.3s.9-.1 1.3-.2v2.2c-.6.2-1.2.3-1.8.3-.7 0-1.3-.2-1.8-.5-.4-.3-.7-.7-.8-1.2-.1-.5-.2-1.3-.2-2.5v-6h-1.7z"/><path id="XMLID_228_" class="st2" d="M223.8 40.5v-4.1h2.1v.4c.1.6.4 1 .9 1.4s1.2.5 1.9.5c.8 0 1.4-.1 1.8-.4.5-.3.7-.6.7-1.1 0-.5-.2-.8-.6-1-.4-.2-1.1-.4-2.2-.6-1.7-.3-2.8-.7-3.6-1.4-.7-.6-1.1-1.4-1.1-2.4s.4-1.8 1.2-2.5c.8-.7 1.8-1 3-1 1.1 0 2.1.2 2.9.7v-.5h2.1v4h-2.1v-.7c-.6-1-1.6-1.5-2.8-1.5-.6 0-1.1.1-1.5.4-.4.3-.6.6-.6 1.1 0 .5.2.8.6.9.4.2 1.2.4 2.4.5 1.2.2 2.1.4 2.6.6.6.2 1.1.7 1.5 1.2s.6 1.2.6 2c0 1.1-.4 2-1.3 2.7-.9.7-2 1-3.3 1-1.3 0-2.3-.3-3.1-.9v.7h-2.1z"/></g></g><path id="XMLID_34_" class="st3" d="M78.5 47.6h156.3"/><g id="XMLID_35_"><path id="XMLID_36_" class="st1" d="M79.2 55.4c0-.1.1-.2.2-.2h3.3c.1 0 .2.1.2.2s-.1.2-.2.2h-3.1v2.5h2.7c.1 0 .2.1.2.2s-.1.2-.2.2h-2.7V61h3.1c.1 0 .2.1.2.2s-.1.2-.2.2h-3.3c-.1 0-.2-.1-.2-.2v-5.8z"/><path id="XMLID_38_" class="st1" d="M85.9 61.5l-.1-.1-1.7-4c0-.1 0-.2.1-.3.1 0 .2 0 .3.1l1.5 3.5 1.5-3.5c0-.1.2-.2.3-.1.1 0 .2.2.1.3l-1.7 4s0 .1-.1.1l-.1.1-.1-.1c0 .1 0 .1 0 0z"/><path id="XMLID_40_" class="st1" d="M89.2 59.3c0-1.2 1-2.3 2.2-2.3 1.2 0 2.1.9 2.2 2.1 0 .1-.1.2-.2.2h-3.7c0 1 .8 1.7 1.7 1.7.6 0 1.1-.3 1.4-.8.1-.1.2-.1.3-.1.1.1.1.2.1.3-.4.6-1.1 1-1.8 1-1.3.2-2.2-.8-2.2-2.1zm.4-.3H93c-.1-.8-.9-1.5-1.7-1.5-.8 0-1.5.6-1.7 1.5z"/><path id="XMLID_43_" class="st1" d="M98.3 58.9c0-.8-.6-1.4-1.4-1.4-.8 0-1.4.6-1.4 1.4v2.5c0 .1-.1.1-.2.1h-.1c-.1 0-.1-.1-.1-.1v-4.1c0-.1.1-.2.2-.2s.2.1.2.2v.4c.3-.4.8-.6 1.4-.6 1 0 1.8.8 1.8 1.8v2.4c0 .1-.1.2-.2.2s-.2-.1-.2-.2v-2.4z"/><path id="XMLID_45_" class="st1" d="M102.2 57.3c0 .1-.1.2-.2.2h-.6v3.3c0 .2.2.3.3.3.1 0 .2.1.2.2s-.1.2-.2.2c-.4 0-.8-.3-.8-.8v-3.3h-.6c-.2 0-.2-.1-.2-.2s0-.2.2-.2h.6v-1.7c0-.1.1-.2.2-.2s.2.1.2.2V57h.6c.2.1.3.2.3.3z"/><path id="XMLID_47_" class="st1" d="M107.4 61.6c-.1 0-.2-.1-.2-.2v-6c0-.1.1-.2.2-.2h1.2c1.8 0 3.2 1.4 3.2 3.2 0 1.8-1.4 3.2-3.2 3.2h-1.2zm1.2-.5c1.5 0 2.8-1.2 2.8-2.7 0-1.5-1.2-2.8-2.8-2.8h-1v5.5h1z"/><path id="XMLID_50_" class="st1" d="M113.3 59.3c0-1.2 1-2.3 2.2-2.3 1.2 0 2.1.9 2.2 2.1 0 .1-.1.2-.2.2h-3.7c0 1 .8 1.7 1.7 1.7.6 0 1.1-.3 1.4-.8.1-.1.2-.1.3-.1.1.1.1.2.1.3-.4.6-1.1 1-1.8 1-1.2.2-2.2-.8-2.2-2.1zm.5-.3h3.4c-.1-.8-.9-1.5-1.7-1.5-.8 0-1.5.6-1.7 1.5z"/><path id="XMLID_53_" class="st1" d="M120.4 57.3c0 .1-.1.2-.2.2h-.6v3.3c0 .2.2.3.3.3.1 0 .2.1.2.2s-.1.2-.2.2c-.4 0-.8-.3-.8-.8v-3.3h-.6c-.2 0-.2-.1-.2-.2s0-.2.2-.2h.6v-1.7c0-.1.1-.2.2-.2s.2.1.2.2V57h.6c.2.1.3.2.3.3z"/><path id="XMLID_55_" class="st1" d="M126 57.3v4c0 .1-.1.2-.2.2s-.2-.1-.2-.2v-.7c-.4.5-1 .9-1.7.9-1.2 0-2.1-1-2.1-2.2 0-1.2.9-2.2 2.1-2.2.7 0 1.3.3 1.7.9v-.7c0-.1.1-.2.2-.2s.2.1.2.2zm-.4 2c0-1-.8-1.8-1.7-1.8-.9 0-1.7.8-1.7 1.8s.8 1.8 1.7 1.8c.9 0 1.7-.8 1.7-1.8z"/><path id="XMLID_58_" class="st1" d="M127.9 55.8c0-.1.1-.2.2-.2s.2.1.2.2v.2c0 .1-.1.2-.2.2s-.2-.1-.2-.2v-.2zm0 1.5c0-.1.1-.2.2-.2s.2.1.2.2v4c0 .1-.1.2-.2.2s-.2-.1-.2-.2v-4z"/><path id="XMLID_61_" class="st1" d="M130.4 55.4c0-.1.1-.2.2-.2s.2.1.2.2v6c0 .1-.1.2-.2.2s-.2-.1-.2-.2v-6z"/><path id="XMLID_63_" class="st1" d="M135.4 55.4c0-.1.1-.2.2-.2h1.8c1 0 1.8.8 1.8 1.8s-.8 1.8-1.8 1.8h-1.6v2.5c0 .1-.1.2-.2.2s-.2-.1-.2-.2v-5.9zm2.1 3c.8 0 1.4-.6 1.4-1.4s-.6-1.4-1.4-1.4h-1.6v2.8h1.6z"/><path id="XMLID_66_" class="st1" d="M140.7 57.3c0-.1.1-.2.2-.2s.2.1.2.2v1s0-.1.1-.1c.3-.5.9-1.1 1.8-1.1.1 0 .2.1.2.2s-.1.2-.2.2c-.6 0-1 .3-1.3.7-.3.4-.5.9-.5 1v2.1c0 .1-.1.2-.2.2s-.2-.1-.2-.2v-4z"/><path id="XMLID_68_" class="st1" d="M146.4 57.1c1.2 0 2.1 1 2.1 2.2 0 1.2-.9 2.2-2.1 2.2-1.2 0-2.1-1-2.1-2.2 0-1.2.9-2.2 2.1-2.2zm0 4c.9 0 1.7-.8 1.7-1.8s-.8-1.8-1.7-1.8c-.9 0-1.7.8-1.7 1.8s.8 1.8 1.7 1.8z"/><path id="XMLID_71_" class="st1" d="M151.9 55.4c0 .1-.1.2-.2.2-.3 0-.5.1-.6.2-.1.1-.2.3-.2.7v.5h.6c.1 0 .2.1.2.2s-.1.2-.2.2h-.6v3.9c0 .1-.1.2-.2.2s-.2-.1-.2-.2v-3.9h-.6c-.1 0-.2-.1-.2-.2s.1-.2.2-.2h.6v-.5c0-.5.1-.8.3-1 .2-.2.5-.3.9-.3.1 0 .2.1.2.2z"/><path id="XMLID_73_" class="st1" d="M152.8 59.3c0-1.2 1-2.3 2.2-2.3 1.2 0 2.1.9 2.2 2.1 0 .1-.1.2-.2.2h-3.7c0 1 .8 1.7 1.7 1.7.6 0 1.1-.3 1.4-.8.1-.1.2-.1.3-.1.1.1.1.2.1.3-.4.6-1.1 1-1.8 1-1.2.2-2.2-.8-2.2-2.1zm.5-.3h3.4c-.1-.8-.9-1.5-1.7-1.5-.9 0-1.6.6-1.7 1.5z"/><path id="XMLID_76_" class="st1" d="M158.4 60.6c.1-.1.2-.1.3 0 .3.2.8.5 1.4.5.3 0 .7-.1.9-.3.2-.1.3-.3.3-.5s-.1-.4-.3-.5c-.2-.1-.5-.3-1-.3-.4-.1-.8-.2-1-.3-.3-.2-.5-.5-.5-.8 0-.4.2-.7.5-.9.3-.2.6-.3 1.1-.3.6 0 1 .3 1.3.5.1.1.1.2.1.3-.1.1-.2.1-.3.1-.3-.2-.7-.4-1.1-.4-.4 0-.7.1-.9.3-.2.1-.3.3-.3.5s.1.3.3.4c.2.1.5.2.9.3.4.1.8.2 1.1.4.3.2.5.5.5.9s-.2.7-.5.9c-.3.2-.7.4-1.1.4-.7 0-1.3-.3-1.7-.6-.1-.4-.1-.5 0-.6z"/><path id="XMLID_78_" class="st1" d="M162.8 60.6c.1-.1.2-.1.3 0 .3.2.8.5 1.4.5.3 0 .7-.1.9-.3.2-.1.3-.3.3-.5s-.1-.4-.3-.5c-.2-.1-.5-.3-1-.3-.4-.1-.8-.2-1-.3-.3-.2-.5-.5-.5-.8 0-.4.2-.7.5-.9.3-.2.6-.3 1.1-.3.6 0 1 .3 1.3.5.1.1.1.2.1.3-.1.1-.2.1-.3.1-.3-.2-.7-.4-1.1-.4-.4 0-.7.1-.9.3-.2.1-.3.3-.3.5s.1.3.3.4c.2.1.5.2.9.3.4.1.8.2 1.1.4.3.2.5.5.5.9s-.2.7-.5.9c-.3.2-.7.4-1.1.4-.7 0-1.3-.3-1.7-.6-.1-.4-.1-.5 0-.6z"/><path id="XMLID_80_" class="st1" d="M167.6 55.8c0-.1.1-.2.2-.2s.2.1.2.2v.2c0 .1-.1.2-.2.2s-.2-.1-.2-.2v-.2zm0 1.5c0-.1.1-.2.2-.2s.2.1.2.2v4c0 .1-.1.2-.2.2s-.2-.1-.2-.2v-4z"/><path id="XMLID_83_" class="st1" d="M172.1 57.1c1.2 0 2.1 1 2.1 2.2 0 1.2-.9 2.2-2.1 2.2-1.2 0-2.1-1-2.1-2.2 0-1.2.9-2.2 2.1-2.2zm0 4c.9 0 1.7-.8 1.7-1.8s-.8-1.8-1.7-1.8c-.9 0-1.7.8-1.7 1.8s.8 1.8 1.7 1.8z"/><path id="XMLID_86_" class="st1" d="M179.1 58.9c0-.8-.6-1.4-1.4-1.4-.8 0-1.4.6-1.4 1.4v2.5c0 .1-.1.1-.2.1h-.1c-.1 0-.1-.1-.1-.1v-4.1c0-.1.1-.2.2-.2s.2.1.2.2v.4c.3-.4.8-.6 1.4-.6 1 0 1.8.8 1.8 1.8v2.4c0 .1-.1.2-.2.2s-.2-.1-.2-.2v-2.4z"/><path id="XMLID_88_" class="st1" d="M185.3 57.3v4c0 .1-.1.2-.2.2s-.2-.1-.2-.2v-.7c-.4.5-1 .9-1.7.9-1.2 0-2.1-1-2.1-2.2 0-1.2.9-2.2 2.1-2.2.7 0 1.3.3 1.7.9v-.7c0-.1.1-.2.2-.2s.2.1.2.2zm-.5 2c0-1-.8-1.8-1.7-1.8-.9 0-1.7.8-1.7 1.8s.8 1.8 1.7 1.8c1 0 1.7-.8 1.7-1.8z"/><path id="XMLID_91_" class="st1" d="M187.4 55.4c0-.1.1-.2.2-.2s.2.1.2.2v6c0 .1-.1.2-.2.2s-.2-.1-.2-.2v-6z"/><path id="XMLID_93_" class="st1" d="M189.3 60.6c.1-.1.2-.1.3 0 .3.2.8.5 1.4.5.3 0 .7-.1.9-.3.2-.1.3-.3.3-.5s-.1-.4-.3-.5c-.2-.1-.5-.3-1-.3-.4-.1-.8-.2-1-.3-.3-.2-.5-.5-.5-.8 0-.4.2-.7.5-.9.3-.2.6-.3 1.1-.3.6 0 1 .3 1.3.5.1.1.1.2.1.3-.1.1-.2.1-.3.1-.3-.2-.7-.4-1.1-.4-.4 0-.7.1-.9.3-.2.1-.3.3-.3.5s.1.3.3.4c.2.1.5.2.9.3.4.1.8.2 1.1.4.3.2.5.5.5.9s-.2.7-.5.9c-.3.2-.7.4-1.1.4-.7 0-1.3-.3-1.7-.6-.1-.4-.1-.5 0-.6z"/></g><path id="XMLID_95_" class="st2" d="M63.6 20h7.1v-9.4H54.1v20.6c-2.5-1.6-5.3-2.6-8.4-3-.9-.1-1.7-.2-2.6-.2-2.9 0-5.7.6-8.2 1.7-7 3.1-11.9 9.9-12.2 17.9 1.5.8 3.2 1.2 5 1.2 1.6 0 3.2-.4 4.6-1 .2-4.1 2.8-7.6 6.3-9.3 1.4-.6 2.9-1 4.6-1 1.8 0 3.5.4 5 1.2 3.5 1.8 5.9 5.5 5.9 9.7 0 6-4.9 10.9-10.9 10.9-2.8 0-5.3-1-7.2-2.7-2.5 1.1-5.3 1.7-8.2 1.7-.9 0-1.7-.1-2.6-.2 3.5 6.4 10.2 10.8 18 10.8 11.3 0 20.5-9.2 20.5-20.5V20z"/><path id="XMLID_96_" class="st0" d="M43.1 40.5c-2.3 0-4.3.9-5.8 2.5-1.1 2.2-2.9 3.9-5.1 4.9-1.4.6-2.9 1-4.6 1-1.8 0-3.5-.4-5-1.2-3.5-1.8-5.9-5.5-5.9-9.7 0-6 4.9-10.9 10.9-10.9 1.5 0 3 .3 4.4.9 3.3-1.8 7.1-2.8 11.1-2.8h.5c-3.8-4.7-9.5-7.7-16-7.7-4 0-7.8 1.2-11 3.2V0H0v9.4h7.1V38c0 10.4 7.8 19.1 17.9 20.3.8.1 1.7.2 2.6.2 2.9 0 5.7-.6 8.2-1.7 6-2.6 10.5-8.1 11.9-14.7-1.3-1-2.9-1.6-4.6-1.6z"/></g></svg>