<svg width="150" height="50" viewBox="0 0 150 50" xmlns="http://www.w3.org/2000/svg"><title>social-sprite</title><g fill="#FFF" fill-rule="evenodd"><path d="M137.313 17.375c-.698 1.02-1.542 1.89-2.532 2.61.012.145.017.364.017.656 0 1.355-.198 2.706-.594 4.055-.396 1.35-.997 2.644-1.805 3.883-.807 1.24-1.768 2.336-2.882 3.29-1.115.952-2.46 1.713-4.032 2.28-1.573.568-3.255.852-5.046.852-2.823 0-5.407-.755-7.75-2.266.364.042.77.063 1.218.063 2.344 0 4.433-.72 6.266-2.156-1.094-.02-2.073-.356-2.938-1.007-.864-.65-1.458-1.482-1.78-2.492.343.053.66.08.952.08.448 0 .89-.06 1.328-.173-1.166-.24-2.132-.82-2.898-1.742s-1.148-1.992-1.148-3.21v-.064c.708.397 1.468.61 2.28.642-.687-.458-1.234-1.057-1.64-1.797-.406-.74-.61-1.542-.61-2.406 0-.918.23-1.767.688-2.548 1.26 1.552 2.795 2.794 4.602 3.726 1.807.933 3.742 1.45 5.805 1.555-.084-.396-.126-.78-.126-1.156 0-1.396.493-2.586 1.477-3.57.984-.985 2.175-1.477 3.57-1.477 1.46 0 2.688.53 3.688 1.594 1.135-.22 2.203-.625 3.203-1.22-.385 1.2-1.125 2.126-2.22 2.782.97-.104 1.94-.364 2.907-.78zM82.28 33.28V23.157h-2.108c.208.657.312 1.34.312 2.047 0 1.313-.333 2.524-1 3.633-.666 1.11-1.573 1.987-2.718 2.633-1.146.645-2.396.968-3.75.968-2.052 0-3.808-.706-5.266-2.118-1.458-1.41-2.188-3.117-2.188-5.117 0-.708.105-1.39.313-2.047h-2.203V33.28c0 .272.09.5.273.68.183.183.41.274.68.274h16.703c.26 0 .484-.09.672-.273.188-.18.28-.408.28-.68zm-4.436-8.327c0-1.292-.472-2.393-1.414-3.305-.943-.91-2.08-1.367-3.414-1.367-1.323 0-2.456.457-3.4 1.368-.942.912-1.413 2.013-1.413 3.305 0 1.292.47 2.393 1.414 3.305.943.91 2.076 1.367 3.4 1.367 1.332 0 2.47-.456 3.413-1.367.942-.912 1.414-2.013 1.414-3.305zm4.437-5.625V16.75c0-.292-.103-.544-.31-.758-.21-.213-.465-.32-.767-.32h-2.72c-.3 0-.556.107-.764.32-.21.214-.314.466-.314.758v2.578c0 .302.104.557.313.766.207.208.462.312.764.312h2.72c.3 0 .556-.104.765-.312.207-.21.31-.464.31-.766zm2.72-3.25v17.844c0 .844-.302 1.568-.906 2.172-.604.604-1.328.906-2.172.906H64.078c-.844 0-1.568-.302-2.172-.906-.604-.604-.906-1.328-.906-2.172V16.078c0-.844.302-1.568.906-2.172.604-.604 1.328-.906 2.172-.906h17.844c.844 0 1.568.302 2.172.906.604.604.906 1.328.906 2.172zM29.242 12.188v4.124H26.79c-.897 0-1.5.188-1.813.563-.313.375-.47.937-.47 1.688v2.953h4.58l-.61 4.625h-3.97V38h-4.78V26.14h-3.985v-4.624h3.985V18.11c0-1.938.54-3.44 1.625-4.508C22.435 12.534 23.878 12 25.68 12c1.53 0 2.718.062 3.562.188z"/></g></svg>